<?xml version="1.0" encoding="UTF-8"?>
<svg version="1.1" xmlns="http://www.w3.org/2000/svg" width="1025" height="1025">
<path d="M0 0 C3.45456646 0.01709073 6.90843879 0.00688357 10.3629818 -0.0103159 C36.26178426 -0.11942094 61.96184513 1.73343955 87.52050781 6.07861328 C88.2734613 6.2039444 89.02641479 6.32927551 89.80218506 6.45840454 C166.13875894 19.23911583 240.77507567 49.30253707 303.14550781 95.39111328 C304.73298828 96.55513672 304.73298828 96.55513672 306.35253906 97.74267578 C309.3046692 99.93259146 312.23063536 102.15187352 315.14550781 104.39111328 C315.68739746 104.80683594 316.22928711 105.22255859 316.78759766 105.65087891 C329.53538326 115.45966235 341.70698721 125.8742544 353.47509766 136.83837891 C355.35549053 138.5863033 357.24484185 140.32431353 359.13378906 142.06298828 C365.65200075 148.08729228 372.04830432 154.09722418 377.87597656 160.80517578 C380.17709324 163.42710219 382.5461745 165.96963205 384.9362793 168.51000977 C390.96298292 174.92236733 396.68519085 181.4842913 402.14550781 188.39111328 C402.99150938 189.4447819 403.83787979 190.49815445 404.68457031 191.55126953 C459.68806526 260.34824162 496.02911646 342.21607858 510.45800781 429.01611328 C510.63414612 430.05256485 510.63414612 430.05256485 510.81384277 431.10995483 C515.101175 456.67384195 516.66548155 482.36374988 516.53662109 508.24560547 C516.51953036 511.70017193 516.52973753 515.15404426 516.54693699 518.60858727 C516.65604203 544.50738973 514.80318155 570.2074506 510.45800781 595.76611328 C510.3326767 596.51906677 510.20734558 597.27202026 510.07821655 598.04779053 C497.29750527 674.38436441 467.23408402 749.02068114 421.14550781 811.39111328 C419.98148438 812.97859375 419.98148438 812.97859375 418.79394531 814.59814453 C416.60402964 817.55027467 414.38474757 820.47624083 412.14550781 823.39111328 C411.72978516 823.93300293 411.3140625 824.47489258 410.88574219 825.03320312 C401.07695874 837.78098873 390.66236669 849.95259268 379.69824219 861.72070312 C377.95031779 863.601096 376.21230757 865.49044732 374.47363281 867.37939453 C368.44932882 873.89760622 362.43939692 880.29390979 355.73144531 886.12158203 C353.10951891 888.42269871 350.56698905 890.79177997 348.02661133 893.18188477 C341.61425376 899.20858839 335.05232979 904.93079632 328.14550781 910.39111328 C327.09183919 911.23711485 326.03846664 912.08348525 324.98535156 912.93017578 C256.18837948 967.93367073 174.32054251 1004.27472193 87.52050781 1018.70361328 C86.8295401 1018.82103882 86.13857239 1018.93846436 85.42666626 1019.05944824 C59.86277915 1023.34678047 34.17287122 1024.91108702 8.29101562 1024.78222656 C4.83644917 1024.76513583 1.38257683 1024.775343 -2.07196617 1024.79254246 C-27.97076863 1024.9016475 -53.67082951 1023.04878702 -79.22949219 1018.70361328 C-79.98244568 1018.57828217 -80.73539917 1018.45295105 -81.51116943 1018.32382202 C-157.84774332 1005.54311074 -232.48406005 975.47968949 -294.85449219 929.39111328 C-296.44197266 928.22708984 -296.44197266 928.22708984 -298.06152344 927.03955078 C-301.01365358 924.84963511 -303.93961974 922.63035304 -306.85449219 920.39111328 C-307.39638184 919.97539063 -307.93827148 919.55966797 -308.49658203 919.13134766 C-321.24436763 909.32256421 -333.41597159 898.90797216 -345.18408203 887.94384766 C-347.06447491 886.19592326 -348.95382623 884.45791304 -350.84277344 882.71923828 C-357.36098513 876.69493428 -363.7572887 870.68500238 -369.58496094 863.97705078 C-371.88607762 861.35512438 -374.25515888 858.81259452 -376.64526367 856.2722168 C-382.6719673 849.85985923 -388.39417523 843.29793526 -393.85449219 836.39111328 C-394.70049376 835.33744466 -395.54686416 834.28407211 -396.39355469 833.23095703 C-451.39704964 764.43398495 -487.73810083 682.56614798 -502.16699219 595.76611328 C-502.28441772 595.07514557 -502.40184326 594.38417786 -502.52282715 593.67227173 C-506.81015938 568.10838462 -508.37446593 542.41847669 -508.24560547 516.53662109 C-508.22851473 513.08205464 -508.2387219 509.6281823 -508.25592136 506.1736393 C-508.36502641 480.27483684 -506.51216592 454.57477596 -502.16699219 429.01611328 C-502.04166107 428.26315979 -501.91632996 427.5102063 -501.78720093 426.73443604 C-489.00648964 350.39786215 -458.9430684 275.76154542 -412.85449219 213.39111328 C-412.07847656 212.33279297 -411.30246094 211.27447266 -410.50292969 210.18408203 C-408.31301401 207.23195189 -406.09373195 204.30598573 -403.85449219 201.39111328 C-403.43876953 200.84922363 -403.02304687 200.30733398 -402.59472656 199.74902344 C-392.78594311 187.00123784 -382.37135107 174.82963388 -371.40722656 163.06152344 C-369.65930217 161.18113056 -367.92129194 159.29177924 -366.18261719 157.40283203 C-360.15831319 150.88462034 -354.14838129 144.48831677 -347.44042969 138.66064453 C-344.81850328 136.35952785 -342.27597342 133.99044659 -339.7355957 131.6003418 C-333.32323814 125.57363817 -326.76131417 119.85143024 -319.85449219 114.39111328 C-318.80082357 113.54511171 -317.74745101 112.69874131 -316.69433594 111.85205078 C-247.89736385 56.84855583 -166.02952689 20.50750463 -79.22949219 6.07861328 C-78.53852448 5.96118774 -77.84755676 5.84376221 -77.13565063 5.72277832 C-51.57176352 1.43544609 -25.88185559 -0.12886046 0 0 Z " fill="#000000" transform="translate(508.8544921875,0.60888671875)"/>
<path d="M0 0 C4.1855866 2.56594657 6.75494705 5.63984114 8.3125 10.3125 C8.93934489 16.53273007 7.81685742 20.57334757 5.3125 26.3125 C4.76319051 29.29364838 4.91131101 31.2032853 5.3125 34.3125 C7.84703657 37.53204645 9.42547305 39.01682435 13.3125 40.3125 C15.46532275 40.37273013 17.62002738 40.37298457 19.7734375 40.33984375 C21.04960937 40.32759766 22.32578125 40.31535156 23.640625 40.30273438 C25.66382845 40.27795945 27.68688175 40.25001022 29.70996094 40.21655273 C31.66850161 40.18620443 33.62723361 40.169127 35.5859375 40.15234375 C36.75560059 40.13550537 37.92526367 40.11866699 39.13037109 40.10131836 C43.02708054 40.35992306 45.83049627 41.39263562 49.125 43.4375 C51.91593475 47.84423908 50.28316355 54.45918226 49.3125 59.3125 C57.97726063 65.35631724 66.30747812 67.34085736 76.60546875 69.015625 C95.44460399 72.09486058 95.44460399 72.09486058 100.875 78.1875 C102.41535583 81.53609963 102.65913084 83.67287615 102.3125 87.3125 C103.55 87.35375 104.7875 87.395 106.0625 87.4375 C115.52608077 88.5071669 123.35531953 94.20903224 130.890625 99.64453125 C136.46746475 103.48535476 142.0598171 106.14603236 148.6796875 107.59765625 C156.2251733 109.42598994 163.35507762 112.16280289 170.5625 115 C171.24437378 115.2670575 171.92624756 115.53411499 172.62878418 115.80926514 C207.35102385 129.44338054 207.35102385 129.44338054 216.0625 143.1875 C217.3125 146.3125 217.3125 146.3125 217.25 148.625 C216.3125 150.3125 216.3125 150.3125 213.3125 152.3125 C201.94476793 153.90153782 192.1819684 150.90011052 181.57910156 147.11865234 C179.22415364 146.28107823 176.86138292 145.47212912 174.4921875 144.67578125 C173.78562012 144.43770752 173.07905273 144.19963379 172.35107422 143.9543457 C166.6691962 142.16540471 161.26069995 141.55240313 155.3125 142.3125 C150.63269953 145.43236698 148.44585919 149.87547157 147.3125 155.3125 C146.87892521 163.256036 147.48221412 171.21203264 148.1171875 179.12890625 C148.2421611 180.75830643 148.2421611 180.75830643 148.36965942 182.42062378 C148.63790554 185.90577021 148.91250794 189.39037994 149.1875 192.875 C149.37540714 195.29236748 149.56290539 197.70976677 149.75 200.12719727 C150.02553132 203.68680682 150.30135845 207.24638944 150.57904053 210.80583191 C151.12230448 217.781795 151.63164353 224.75846978 152.10522461 231.73950195 C154.01406442 259.46377019 156.9636561 287.02971362 162.3125 314.3125 C162.4559082 315.08577637 162.59931641 315.85905273 162.74707031 316.65576172 C167.25286112 340.70755898 176.330202 368.24980696 188 389.8125 C188.42152344 390.60092285 188.84304688 391.3893457 189.27734375 392.20166016 C193.70943985 400.31467725 198.83156053 407.87778087 204.3125 415.3125 C204.7353125 415.88693848 205.158125 416.46137695 205.59375 417.05322266 C211.00229321 424.34419243 216.76720075 431.30781051 222.66796875 438.203125 C225.05371013 440.99493176 227.37740632 443.83261275 229.6875 446.6875 C244.29500269 464.54684958 259.55770712 481.70569115 278.3125 495.3125 C278.97749512 495.80057129 279.64249023 496.28864258 280.32763672 496.79150391 C290.0043283 503.87009466 299.90312709 510.36832881 310.3125 516.3125 C311.01487793 516.71710449 311.71725586 517.12170898 312.44091797 517.53857422 C340.40347676 533.59744271 393.01196379 562.1038976 426.3125 556.3125 C431.10371854 553.27471109 434.65405588 548.84867819 438.3125 544.5859375 C446.4262546 535.36288051 456.68659005 523.90176653 469.55859375 521.9765625 C475.14141285 521.87704701 477.98252645 522.75970119 482.3125 526.3125 C481.57952591 535.8411632 475.60606446 542.47225528 469.30078125 549.1484375 C466.12604664 552.56943021 466.12604664 552.56943021 465.1875 557 C465.249375 558.1446875 465.249375 558.1446875 465.3125 559.3125 C468.18602707 560.74926353 470.59011355 560.35161779 473.796875 560.26953125 C475.13930721 560.24708688 476.48175635 560.22563784 477.82421875 560.20507812 C479.92381806 560.16847694 482.02252742 560.12615169 484.12158203 560.06567383 C494.34346318 559.78533721 502.53979785 561.03644253 512.3125 564.3125 C519.61540689 566.32510574 524.46578103 565.1183345 531.078125 561.69921875 C533.15643423 560.409359 534.68011778 559.11978032 536.3125 557.3125 C539.09034537 558.37461735 541.72292774 559.52190191 544.375 560.875 C549.56387709 563.41423772 554.09685524 563.40974408 559.8046875 563.3046875 C561.49608773 563.28716893 563.18749437 563.27026087 564.87890625 563.25390625 C567.53419862 563.22297938 570.18916798 563.18747088 572.84423828 563.14111328 C575.41442824 563.09861896 577.98424109 563.07529071 580.5546875 563.0546875 C581.34237518 563.03606659 582.13006287 563.01744568 582.94161987 562.9982605 C587.81807523 562.97572356 591.07058987 563.6438767 595.3125 566.3125 C598.53496981 569.96463245 598.80386468 573.41106993 598.5703125 578.10546875 C598.14662665 581.73247644 597.6696669 583.43151823 595.3125 586.3125 C587.2393042 591.63240937 577.44749245 592.43133549 568.12060547 593.8659668 C555.00750729 595.80496687 555.00750729 595.80496687 543.625 602.1875 C539.97674929 604.52788725 539.54201065 604.55622143 535.5625 603.6875 C534.13523701 603.26331345 532.71667914 602.80777249 531.3125 602.3125 C517.85392315 597.82630772 501.97595236 604.65480663 489.1875 609 C480.73538088 611.87138019 473.50357762 613.36289578 464.57348633 613.78051758 C457.3469361 614.18674137 450.2234789 615.22528779 443.0625 616.25 C431.49594342 617.8949787 419.96073258 619.39356162 408.3125 620.3125 C407.24612305 620.39927002 407.24612305 620.39927002 406.15820312 620.48779297 C400.21386951 620.94431996 394.27172842 621.15942383 388.3125 621.3125 C387.0529248 621.34649902 385.79334961 621.38049805 384.49560547 621.41552734 C363.39445915 621.92795233 342.48302034 621.07639488 321.4375 619.5 C319.76122528 619.37584213 319.76122528 619.37584213 318.05108643 619.24917603 C275.18570906 616.02077011 232.90194459 610.48762096 192.18530273 596.27612305 C189.09698522 595.24020996 185.98649358 594.31176215 182.86328125 593.38671875 C176.45136898 591.43118509 170.36778652 588.97957954 164.25 586.25 C163.17073242 585.77030762 162.09146484 585.29061523 160.97949219 584.79638672 C139.19792778 574.95903317 117.64911304 562.76294578 99.04541016 547.69921875 C97.04289872 546.0967582 95.01396944 544.53169219 92.98046875 542.96875 C79.55435133 532.64467026 66.65780999 521.90852817 54.3125 510.3125 C53.60609375 509.66023438 52.8996875 509.00796875 52.171875 508.3359375 C46.37421337 502.7975209 41.60277589 496.49275013 36.73144531 490.15039062 C34.91799046 487.80151104 33.07531375 485.47658723 31.23168945 483.15136719 C6.05149834 451.34194814 -15.39342778 417.52871119 -33.6875 381.3125 C-34.32703613 380.04962158 -34.32703613 380.04962158 -34.97949219 378.76123047 C-43.20841118 362.37191244 -50.02699814 345.3843825 -56.6875 328.3125 C-57.08211426 327.31057617 -57.47672852 326.30865234 -57.88330078 325.27636719 C-65.09432083 306.72803965 -69.37508633 287.3017753 -74.03851318 267.99859619 C-82.68768143 230.0642971 -82.68768143 230.0642971 -97.02392578 194.03735352 C-101.99646691 184.09604787 -103.07084795 174.6429012 -100.1875 163.875 C-95.32649406 149.37726299 -83.97672907 139.22113895 -70.6875 132.3125 C-67.81309654 131.07128033 -65.25145923 130.21127625 -62.1875 129.5 C-54.79036259 127.73541569 -47.42033719 124.84233697 -40.6875 121.3125 C-46.82374386 122.60933504 -52.45964636 123.99506243 -58 127 C-62.08134741 129.15531829 -64.9995817 130.25008366 -69.6875 129.3125 C-72.1875 127.4375 -72.1875 127.4375 -73.6875 124.3125 C-74.10872067 119.14609952 -73.32998221 115.36383453 -70.625 110.9375 C-64.9452334 105.86196389 -59.54463187 104.17183872 -52.1484375 102.86328125 C-47.0070038 101.71257942 -42.98485528 99.64399621 -39.3125 95.875 C-35.79428484 90.32704533 -35.10945672 85.80074089 -35.6875 79.3125 C-36.52067764 76.36433298 -37.04986294 74.85567231 -39.375 72.875 C-40.6875 71.3125 -40.6875 71.3125 -40.54296875 68.48828125 C-39.51749051 64.68136888 -38.29315779 63.4668279 -35.3125 60.9375 C-34.4153125 60.17050781 -33.518125 59.40351563 -32.59375 58.61328125 C-29.72977116 56.34596467 -26.80041599 54.22537643 -23.8125 52.125 C-18.86937587 48.60118874 -15.47239734 45.88814345 -14.125 39.75 C-15.18517584 35.1559047 -18.99006483 32.83186662 -22.625 30.125 C-27.3036884 26.24837247 -30.93934386 20.84923813 -32.203125 14.875 C-32.38668503 10.99401646 -31.80254586 8.5665596 -30.1875 5 C-22.65098241 -3.1017564 -10.08844864 -4.6372794 0 0 Z " fill="#FAFAFA" transform="translate(264.6875,202.6875)"/>
<path d="M0 0 C4.41956818 0.72320207 5.74934718 2.02949915 8.4375 5.5625 C10.99254085 11.20860426 10.781354 16.85862458 10.75 22.9375 C10.74726074 23.99936523 10.74452148 25.06123047 10.74169922 26.15527344 C10.61442985 35.82481965 10.3393772 46.95224613 5.4375 55.5625 C7.0875 55.8925 8.7375 56.2225 10.4375 56.5625 C13.0284369 63.0471945 13.89035575 68.66764336 13.75 75.625 C13.74162109 76.52951904 13.73324219 77.43403809 13.72460938 78.3659668 C13.58097595 86.5279363 12.71421811 94.50321695 11.4375 102.5625 C12.7575 102.8925 14.0775 103.2225 15.4375 103.5625 C17.95447065 112.49368617 15.95298725 120.84813345 13.4375 129.5625 C14.6440625 129.5315625 14.6440625 129.5315625 15.875 129.5 C18.4375 129.5625 18.4375 129.5625 19.4375 130.5625 C19.69997139 135.11200416 19.43294337 138.44689805 17.4375 142.5625 C15.7875 141.9025 14.1375 141.2425 12.4375 140.5625 C10.28690691 144.09436832 10.0577272 147.22537993 9.8125 151.3125 C9.73773438 152.48296875 9.66296875 153.6534375 9.5859375 154.859375 C9.51246094 156.19742188 9.51246094 156.19742188 9.4375 157.5625 C9.829375 156.53125 10.22125 155.5 10.625 154.4375 C12.33076402 150.46816287 14.41821203 147.65727017 17.4375 144.5625 C18.4275 144.5625 19.4175 144.5625 20.4375 144.5625 C21.94520867 148.06604449 22.9128091 151.38807066 23.62109375 155.1328125 C23.82669922 156.195 24.03230469 157.2571875 24.24414062 158.3515625 C24.55641602 160.00285156 24.55641602 160.00285156 24.875 161.6875 C26.40543661 169.75970824 28.15098051 177.66954785 30.4375 185.5625 C30.81757202 186.88169434 30.81757202 186.88169434 31.20532227 188.22753906 C32.22159875 191.73907664 33.24191796 195.24934128 34.27539062 198.75585938 C35.78252633 203.95915823 36.99733382 209.11086292 37.89575195 214.45507812 C38.66483068 217.44682557 40.38945603 219.30965163 42.4375 221.5625 C42.4375 222.5525 42.4375 223.5425 42.4375 224.5625 C40.9765625 225.703125 40.9765625 225.703125 39.0625 226.8125 C36.168338 228.72440096 34.91874475 230.00626925 34 233.375 C33.814375 234.426875 33.62875 235.47875 33.4375 236.5625 C34.448125 236.60375 35.45875 236.645 36.5 236.6875 C41.34033444 237.41110555 44.28910549 239.92801133 47.4375 243.5625 C49.31658584 246.46869322 50.93492891 249.44656917 52.4375 252.5625 C53.0975 251.2425 53.7575 249.9225 54.4375 248.5625 C58.5642768 250.29450911 60.14692629 252.66921131 62.58203125 256.296875 C64.25000624 258.33356025 65.80040938 259.70582042 67.83984375 261.3359375 C71.68267757 264.55051373 73.8340834 268.06513951 76.1875 272.4375 C83.9358697 286.14247561 92.5283544 298.20975963 103.4375 309.5625 C105.00986948 311.26175373 106.57339689 312.96926346 108.125 314.6875 C108.76824219 315.39132812 109.41148437 316.09515625 110.07421875 316.8203125 C111.4375 318.5625 111.4375 318.5625 111.4375 320.5625 C110.7775 320.5625 110.1175 320.5625 109.4375 320.5625 C113.99138073 335.93184747 127.62614822 346.68404322 141.12109375 354.296875 C151.33564104 359.79756776 162.10841704 364.6353072 173.40380859 367.35351562 C182.1162027 369.45820617 186.16769263 372.58946437 191.765625 379.484375 C198.21979074 387.29731248 208.48212064 393.76906769 218.4375 395.5625 C224.43893207 395.96583617 230.43251589 395.80032115 236.4375 395.5625 C236.4375 397.5425 236.4375 399.5225 236.4375 401.5625 C243.30215569 404.982315 250.17024439 406.91460153 257.625 408.625 C270.22982039 411.53143259 270.22982039 411.53143259 275.4375 414.5625 C275.4375 415.2225 275.4375 415.8825 275.4375 416.5625 C262.31444619 422.93899469 252.71378133 420.40384007 239.40234375 416.0703125 C236.15093869 415.02493371 232.99925203 414.27122189 229.6328125 413.70703125 C223.16400781 412.49219667 217.36474659 409.77903561 211.375 407.125 C189.02618009 397.11486647 189.02618009 397.11486647 165.125 398.75 C161.56279919 400.31223637 158.37085037 402.43307621 155.19921875 404.671875 C154.61785156 404.96578125 154.03648437 405.2596875 153.4375 405.5625 C152.4475 405.2325 151.4575 404.9025 150.4375 404.5625 C152.7475 401.5925 155.0575 398.6225 157.4375 395.5625 C152.33319772 397.69918467 149.88954227 400.31383259 146.4375 404.5625 C143.73293117 406.65854084 142.43235416 407.63105566 139 407.39453125 C135.76716585 406.34484577 134.87291441 405.0695526 132.9375 402.3125 C132.34066406 401.50425781 131.74382812 400.69601562 131.12890625 399.86328125 C130.57074219 399.10402344 130.01257813 398.34476563 129.4375 397.5625 C126.21242994 393.53181338 126.21242994 393.53181338 121.5 392.1875 C118.44722602 392.47908324 118.44722602 392.47908324 115.625 393.375 C110.74463844 393.66208009 107.45230624 391.14089779 103.4375 388.5625 C103.4375 384.5625 103.4375 384.5625 105.4375 382.5625 C104.1175 381.9025 102.7975 381.2425 101.4375 380.5625 C102.88794271 376.45291233 104.94860752 373.12991255 107.4375 369.5625 C106.15359375 369.57796875 104.8696875 369.5934375 103.546875 369.609375 C89.44910677 369.59835251 70.59967905 369.29363045 59.4375 359.5625 C56.9613542 356.49989862 55.53058669 354.63299691 55.1875 350.6875 C55.27 349.98625 55.3525 349.285 55.4375 348.5625 C62.65221629 348.20767789 68.56168702 349.4033662 75.4375 351.5625 C73.4375 352.89583333 71.4375 354.22916667 69.4375 355.5625 C70.43125484 358.19042947 71.10470468 359.36282281 73.546875 360.828125 C81.14091081 363.65903776 88.35481492 364.47711963 96.4375 363.5625 C97.4275 362.9025 98.4175 362.2425 99.4375 361.5625 C98.58027344 360.716875 97.72304688 359.87125 96.83984375 359 C86.425869 348.6805038 86.425869 348.6805038 82.8125 344.3125 C66.13359272 325.0085831 38.27161278 314.84089544 15.38671875 305.08984375 C14.71631561 304.80354599 14.04591248 304.51724823 13.35519409 304.22227478 C10.11516171 302.84211946 6.86967351 301.47812745 3.61230469 300.1394043 C-13.69296087 292.8668087 -13.69296087 292.8668087 -18.5625 285.5625 C-12.37132973 286.02597308 -7.94858802 287.46309699 -2.5 290.375 C-1.83162109 290.71853516 -1.16324219 291.06207031 -0.47460938 291.41601562 C3.89846259 293.68117341 8.16958858 296.10618644 12.4375 298.5625 C15.08208379 299.88479189 17.11511301 299.65927194 20.0625 299.625 C21.56683594 299.61146484 21.56683594 299.61146484 23.1015625 299.59765625 C23.87242187 299.58605469 24.64328125 299.57445312 25.4375 299.5625 C27.00178238 296.43393524 26.71757086 294.03537869 26.4375 290.5625 C23.70837061 282.86457526 18.69957422 276.39906751 11.4375 272.5625 C9.84126017 272.23017703 8.23551416 271.94179171 6.625 271.6875 C-4.03178354 269.83692082 -12.22555293 261.01480787 -19.5625 253.5625 C-18.91023437 253.45292969 -18.25796875 253.34335937 -17.5859375 253.23046875 C-9.42527333 251.89533145 -9.42527333 251.89533145 -2.5625 247.5625 C-1.64902805 242.98572302 -1.79823439 239.06913249 -3.92578125 234.875 C-9.23752524 227.3087891 -15.90042515 220.92478148 -22.5625 214.5625 C-21.30419838 218.5667215 -19.8020408 222.24365903 -17.9375 226 C-15.82741087 230.5295755 -15.01284741 233.61562665 -15.5625 238.5625 C-16.5525 238.5625 -17.5425 238.5625 -18.5625 238.5625 C-18.79324219 238.02882813 -19.02398437 237.49515625 -19.26171875 236.9453125 C-20.34284351 234.47539112 -21.44872303 232.01787196 -22.5625 229.5625 C-22.95953125 228.67691406 -23.3565625 227.79132813 -23.765625 226.87890625 C-26.48867559 221.07949786 -28.63729794 217.07830316 -34.87890625 214.66796875 C-37.09409584 213.90877232 -39.31234182 213.20960431 -41.5625 212.5625 C-41.52125 213.820625 -41.48 215.07875 -41.4375 216.375 C-41.3234626 219.85314073 -41.50324319 220.47361478 -43.5625 223.5625 C-44.5525 223.2325 -45.5425 222.9025 -46.5625 222.5625 C-47.75 220 -47.75 220 -48.5625 217.5625 C-49.68398438 217.64951172 -49.68398438 217.64951172 -50.828125 217.73828125 C-58.92221606 218.10908385 -58.92221606 218.10908385 -62.125 215.375 C-64.53735725 210.6551706 -65.72790102 207.14223566 -65.8125 201.8125 C-66.41094978 193.92647623 -69.34248168 189.39121302 -75.23046875 184.21875 C-77.13564307 182.67609873 -79.0560176 181.15200268 -80.9921875 179.6484375 C-84.01426135 177.195873 -86.24921821 174.67346517 -88.5625 171.5625 C-87.9025 171.2325 -87.2425 170.9025 -86.5625 170.5625 C-84.6796875 171.33984375 -84.6796875 171.33984375 -82.4375 172.5 C-77.82065891 174.65552031 -74.62310479 175.09519524 -69.5625 174.5625 C-67.29910301 172.70249185 -67.29910301 172.70249185 -67.1875 169.8125 C-67.56181382 166.56844686 -68.28397597 164.92693114 -70.23046875 162.34765625 C-71.5625 160.5625 -71.5625 160.5625 -73.17578125 157.99609375 C-73.75714844 157.08988281 -74.33851563 156.18367187 -74.9375 155.25 C-75.48148437 154.38761719 -76.02546875 153.52523437 -76.5859375 152.63671875 C-78.47674959 150.31595474 -78.47674959 150.31595474 -81.63671875 149.60546875 C-82.60222656 149.59128906 -83.56773437 149.57710937 -84.5625 149.5625 C-86.88438206 151.9552842 -86.88438206 151.9552842 -88.20703125 153.859375 C-90.55514682 156.80974499 -93.38164689 158.55974064 -96.5625 160.5625 C-97.5525 160.5625 -98.5425 160.5625 -99.5625 160.5625 C-100.86725618 157.95298764 -100.67551572 156.03548715 -100.66015625 153.1171875 C-100.65693359 152.04082031 -100.65371094 150.96445312 -100.65039062 149.85546875 C-100.63782227 148.16357422 -100.63782227 148.16357422 -100.625 146.4375 C-100.62048828 145.30183594 -100.61597656 144.16617188 -100.61132812 142.99609375 C-100.59951615 140.18484362 -100.58304507 137.3736977 -100.5625 134.5625 C-100.8925 135.2225 -101.2225 135.8825 -101.5625 136.5625 C-104.0375 137.5525 -104.0375 137.5525 -106.5625 138.5625 C-106.2325 145.1625 -105.9025 151.7625 -105.5625 158.5625 C-109.1925 158.5625 -112.8225 158.5625 -116.5625 158.5625 C-114.63838817 163.46403642 -114.63838817 163.46403642 -111.33203125 166.90234375 C-110.69330078 167.49080078 -110.05457031 168.07925781 -109.39648438 168.68554688 C-108.72939453 169.28431641 -108.06230469 169.88308594 -107.375 170.5 C-106.72724609 171.09490234 -106.07949219 171.68980469 -105.41210938 172.30273438 C-101.20578258 176.14767845 -96.90540911 179.87299874 -92.5625 183.5625 C-94.5625 184.5625 -94.5625 184.5625 -97.375 184.3125 C-100.78783375 184.23292239 -100.78783375 184.23292239 -103.125 187.125 C-104.3315625 188.3315625 -104.3315625 188.3315625 -105.5625 189.5625 C-108.40950642 189.5625 -109.82456633 189.11406777 -112.09375 187.41796875 C-114.18519846 184.77584636 -114.64102822 182.13489554 -115.4375 178.875 C-117.63494987 170.7786923 -120.28831929 164.23875903 -127.5625 159.5625 C-129.86875442 158.45029797 -132.17497887 157.49878279 -134.5625 156.5625 C-133.7375 156.005625 -132.9125 155.44875 -132.0625 154.875 C-129.38406187 152.83244265 -129.38406187 152.83244265 -129 150.125 C-130.48740307 143.34905266 -136.9288369 140.04116863 -142.296875 136.4296875 C-143.04453125 135.81351563 -143.7921875 135.19734375 -144.5625 134.5625 C-144.5625 130.12883211 -141.78651665 127.98332431 -138.9375 124.875 C-138.15439453 123.96524414 -138.15439453 123.96524414 -137.35546875 123.03710938 C-134.7615949 120.19025277 -133.29642654 118.72837481 -129.46875 117.86328125 C-125.60206567 118.79357224 -124.22916226 120.41660175 -121.6875 123.4375 C-120.90632813 124.34242188 -120.12515625 125.24734375 -119.3203125 126.1796875 C-117.5625 128.5625 -117.5625 128.5625 -117.5625 130.5625 C-119.0165625 130.995625 -119.0165625 130.995625 -120.5 131.4375 C-123.66914203 132.20464682 -123.66914203 132.20464682 -124.5625 134.5625 C-125.22996675 141.23716749 -123.29710874 146.14231329 -119.17578125 151.296875 C-117.3797267 152.97398829 -117.3797267 152.97398829 -113.5625 152.5625 C-113.41629812 148.2295262 -113.3281227 143.89719362 -113.25 139.5625 C-113.1871582 137.73138672 -113.1871582 137.73138672 -113.12304688 135.86328125 C-113.02467723 128.58392728 -113.33960563 123.00108386 -118.5625 117.5625 C-120.84348348 115.86620305 -122.95916514 114.79316739 -125.5625 113.5625 C-126.1915625 113.18480469 -126.820625 112.80710937 -127.46875 112.41796875 C-130.14005393 111.32652181 -131.6904403 111.70886755 -134.5 112.25 C-139.18495298 112.83561912 -139.18495298 112.83561912 -142.5 110.4375 C-143.180625 109.48875 -143.86125 108.54 -144.5625 107.5625 C-145.160625 106.77875 -145.75875 105.995 -146.375 105.1875 C-147.89519482 101.82706934 -147.84300542 99.20907051 -147.5625 95.5625 C-147.0675 95.0675 -147.0675 95.0675 -146.5625 94.5625 C-144.22305264 94.84980055 -141.8885857 95.18186779 -139.5625 95.5625 C-139.665625 94.345625 -139.76875 93.12875 -139.875 91.875 C-139.86270537 88.40176636 -139.63663097 87.66583408 -137.5 84.6875 C-132.6876064 81.20619399 -128.22946843 80.5878982 -122.4375 80.3125 C-118.9194851 79.99561011 -116.86482582 79.57305119 -114.375 77 C-112.17769547 72.8326983 -112.42749055 69.98416888 -113.5625 65.5625 C-114.70041622 63.03817234 -116.11680068 60.75580292 -117.625 58.4375 C-120.42898993 54.11408304 -122.24847998 50.87503384 -121.5625 45.5625 C-119.875 43.125 -119.875 43.125 -117.5625 41.5625 C-115.3125 41.8125 -115.3125 41.8125 -112.5625 42.5625 C-102.9137741 43.21665091 -95.34756676 40.44885226 -87.27734375 35.2578125 C-85.0928331 33.09818238 -84.80088651 31.58854923 -84.5625 28.5625 C-85.0575 27.5725 -85.0575 27.5725 -85.5625 26.5625 C-83.77392578 26.52382813 -83.77392578 26.52382813 -81.94921875 26.484375 C-80.3827758 26.42809561 -78.81637097 26.37074823 -77.25 26.3125 C-76.46431641 26.29832031 -75.67863281 26.28414063 -74.86914062 26.26953125 C-70.25019035 26.17070088 -70.25019035 26.17070088 -66.5625 23.65625 C-65.58988509 21.61983753 -64.95882533 19.78192185 -64.5625 17.5625 C-58.67054255 18.12903437 -53.19648225 19.36024232 -47.4921875 20.94140625 C-44.08337512 21.76989074 -44.08337512 21.76989074 -38.5625 21.5625 C-41.8625 19.2525 -45.1625 16.9425 -48.5625 14.5625 C-45.10567494 11.10567494 -42.06903934 10.23105401 -37.5 9 C-36.71012695 8.78093994 -35.92025391 8.56187988 -35.10644531 8.33618164 C-28.64668994 6.63950608 -22.24175824 5.75599012 -15.57788086 5.37084961 C-9.31786978 4.91122108 -5.84123825 0.92230078 0 0 Z " fill="#030303" transform="translate(396.5625,360.4375)"/>
<path d="M0 0 C0.74595428 -0.01471344 1.49190857 -0.02942688 2.26046753 -0.04458618 C4.36868616 -0.07976361 6.47362295 -0.07940234 8.58203125 -0.06640625 C9.78706299 -0.06713135 10.99209473 -0.06785645 12.23364258 -0.06860352 C15.1875 0.5625 15.1875 0.5625 17.0690918 2.90258789 C18.88978507 7.23274575 18.89408229 10.53107592 17.34375 14.98828125 C13.11545214 24.40195791 6.45097925 29.51599465 -2.8125 33.5625 C-6.2530455 34.84495203 -9.73441998 35.94247273 -13.25 37 C-14.24499512 37.3000293 -15.23999023 37.60005859 -16.26513672 37.90917969 C-36.68892304 43.88112158 -58.61111868 48.28069724 -79.9309082 48.86303711 C-97.75734503 49.35574787 -110.94884355 55.44092824 -126.56274414 63.4543457 C-146.33247568 73.5625 -146.33247568 73.5625 -155.8125 73.5625 C-155.8125 71.2525 -155.8125 68.9425 -155.8125 66.5625 C-157.60456547 66.70334796 -159.39614917 66.85033701 -161.1875 67 C-162.18523437 67.08121094 -163.18296875 67.16242188 -164.2109375 67.24609375 C-166.79177613 67.41215626 -166.79177613 67.41215626 -168.8125 68.5625 C-170.35273996 68.63200541 -171.89584988 68.64702357 -173.4375 68.625 C-174.25476563 68.61597656 -175.07203125 68.60695313 -175.9140625 68.59765625 C-176.54054687 68.58605469 -177.16703125 68.57445312 -177.8125 68.5625 C-177.77125 69.84125 -177.73 71.12 -177.6875 72.4375 C-177.6171875 74.6171875 -177.6171875 74.6171875 -177.8125 76.5625 C-180.11487735 78.86487735 -180.67414265 78.92799897 -183.8125 79.0625 C-190.66666716 78.89694041 -195.78360587 75.25418127 -200.77734375 70.81640625 C-203.43230698 68.01151568 -204.68533984 66.21101683 -205.4375 62.375 C-204.65879652 58.87083432 -203.65903738 57.7166364 -200.8125 55.5625 C-198.0625 54.3125 -198.0625 54.3125 -195.8125 53.5625 C-199.71343996 52.26218668 -203.75593831 51.99974 -207.8125 52.5625 C-212.22654281 54.81116332 -214.72814039 57.06467137 -216.8125 61.5625 C-217.61168812 64.93907859 -217.98020744 68.18197328 -218.12890625 71.64453125 C-218.17080078 72.57587891 -218.21269531 73.50722656 -218.25585938 74.46679688 C-218.29517578 75.42650391 -218.33449219 76.38621094 -218.375 77.375 C-218.41818359 78.35404297 -218.46136719 79.33308594 -218.50585938 80.34179688 C-218.6115226 82.74857027 -218.71362327 85.15543983 -218.8125 87.5625 C-224.73441576 81.88836314 -228.27723115 75.37991961 -229.1875 67.1875 C-228.5592923 61.11482561 -226.21258693 56.55867524 -221.75 52.375 C-212.34655894 45.02793777 -199.66717296 41.2258202 -187.8125 41.5625 C-187.78671875 42.15417969 -187.7609375 42.74585938 -187.734375 43.35546875 C-187.35920312 48.58229524 -186.93368462 51.95646346 -182.8125 55.5625 C-175.25128222 59.66279273 -167.87517834 61.77503567 -159.3125 60.0625 C-158.8175 59.8975 -158.3225 59.7325 -157.8125 59.5625 C-157.8125 58.2425 -157.8125 56.9225 -157.8125 55.5625 C-158.555 55.294375 -159.2975 55.02625 -160.0625 54.75 C-162.67886554 53.62020579 -164.61437111 52.35356798 -166.8125 50.5625 C-165.66076645 48.09449953 -164.76466435 46.51466435 -162.8125 44.5625 C-165.7825 42.9125 -168.7525 41.2625 -171.8125 39.5625 C-171.8125 38.2425 -171.8125 36.9225 -171.8125 35.5625 C-166.99993183 33.27653012 -162.0191888 32.66156431 -156.8125 31.8125 C-146.48130301 30.02569 -136.57513327 27.42619373 -126.55029297 24.38769531 C-121.71124097 22.92916172 -116.85398138 21.53287832 -112 20.125 C-105.93429992 18.3641476 -99.87518739 16.58806133 -93.8359375 14.73828125 C-63.3218441 5.46019529 -31.8960694 0.32579602 0 0 Z " fill="#040404" transform="translate(405.8125,315.4375)"/>
<path d="M0 0 C7.73148405 0.25802331 12.9615148 3.43533495 19.5625 7.25 C29.12378882 12.57196507 38.76112675 17.3195861 48.875 21.5 C49.5047876 21.7603302 50.1345752 22.0206604 50.78344727 22.28887939 C63.52523953 27.52768336 76.38117738 32.49651841 89.24755859 37.41992188 C89.9871431 37.70390839 90.7267276 37.9878949 91.48872375 38.28048706 C92.86579107 38.80879535 94.24380302 39.33465139 95.62297058 39.85745239 C98.52174418 40.97056755 101.27657112 42.1462348 104.02392578 43.59887695 C107.38473976 45.18113384 110.31876565 45.76328345 113.98828125 46.31640625 C114.6437645 46.41789978 115.29924774 46.51939331 115.97459412 46.6239624 C118.08575519 46.94768385 120.19876189 47.25609227 122.3125 47.5625 C123.77967162 47.78051206 125.24679387 47.9988567 126.71386719 48.2175293 C129.56620173 48.64001561 132.41950516 49.05474556 135.27392578 49.46289062 C138.15380289 49.87802165 141.0282435 50.31313157 143.90234375 50.765625 C158.58885609 52.85304807 174.58737081 53.37939918 189.28515625 51.30078125 C192.73461345 50.89656019 194.91889686 51.15628788 198.12133789 52.46948242 C203.40909167 54.33752554 208.21519522 54.3336 213.7734375 54.1875 C215.28002426 54.17046021 215.28002426 54.17046021 216.81704712 54.15307617 C221.07316776 54.10449098 225.32838909 54.02006588 229.58398438 53.93847656 C232.70959365 53.88379279 235.83505827 53.84778709 238.9609375 53.8125 C240.3755275 53.77515747 240.3755275 53.77515747 241.81869507 53.73706055 C248.63145027 53.66296057 254.52460185 54.91552712 261 57 C258.18328105 59.81671895 255.86155162 59.59507043 251.9375 60.0625 C250.03291016 60.29646484 250.03291016 60.29646484 248.08984375 60.53515625 C247.0841333 60.64802979 247.0841333 60.64802979 246.05810547 60.76318359 C244.71161088 60.91811832 243.36664708 61.08717015 242.02392578 61.27197266 C234.70535987 62.22433 227.37051889 62.24273851 220 62.25 C219.28435883 62.25100708 218.56871765 62.25201416 217.83139038 62.25305176 C182.66461385 62.22008184 147.63142931 56.60072138 113 51 C112.17693359 50.8673877 111.35386719 50.73477539 110.50585938 50.59814453 C74.90052612 44.79227064 19.4944631 31.33572988 -6 4 C-1.9660213 5.25253598 1.64311901 6.74119926 5.3515625 8.7578125 C6.35904541 9.29768799 7.36652832 9.83756348 8.40454102 10.39379883 C9.99866821 11.25074341 9.99866821 11.25074341 11.625 12.125 C22.48954913 17.88603124 33.47326392 22.7370395 45 27 C45.495 26.505 45.495 26.505 46 26 C45.1342334 25.59273682 44.2684668 25.18547363 43.37646484 24.76586914 C40.08774934 23.21561282 36.80532146 21.65239777 33.52441406 20.08569336 C32.1181551 19.41626681 30.71033134 18.75011512 29.30078125 18.08764648 C21.6258796 14.47770167 14.18866336 10.6993571 7.0390625 6.12109375 C6.44298187 5.73993912 5.84690125 5.35878448 5.23275757 4.96607971 C1.13316256 2.26632513 1.13316256 2.26632513 0 0 Z " fill="#0D0D0D" transform="translate(400,757)"/>
<path d="M0 0 C4.06563978 3.73040281 6.73705043 7.48521167 9.375 12.3125 C9.76147705 13.00746582 10.1479541 13.70243164 10.54614258 14.41845703 C13.20577634 19.2947264 15.51991158 24.26359216 17.6875 29.375 C21.81745509 39.10188517 26.78019196 46.97293236 33.55859375 55.0703125 C50 74.8 50 74.8 50 82 C51.0209375 82.2784375 51.0209375 82.2784375 52.0625 82.5625 C60.5442875 86.71316197 64.53658951 94.55856801 68 103 C69.09246628 106.36494839 70.08806525 109.74830171 71.078125 113.14453125 C73.08729396 119.36784697 76.18878626 122.80952971 82 126 C83.155 126.226875 84.31 126.45375 85.5 126.6875 C90.71025314 128.64134493 92.27492445 132.33773547 95 137 C96.02830324 138.63348918 97.06962273 140.2588709 98.125 141.875 C98.58132813 142.59429688 99.03765625 143.31359375 99.5078125 144.0546875 C101.66204373 146.86308319 103.65371638 148.67816943 107.140625 149.51171875 C109.09375 149.67447917 111.046875 149.83723958 113 150 C112.70222656 150.85078125 112.40445313 151.7015625 112.09765625 152.578125 C111.67092947 155.86536622 111.67092947 155.86536622 113.13623047 157.68164062 C114.83925221 159.45646098 116.60220179 161.11234929 118.4375 162.75 C119.66925736 163.8864201 120.89733143 165.02684984 122.12109375 166.171875 C122.6720874 166.6678418 123.22308105 167.16380859 123.79077148 167.67480469 C125 169 125 169 125 171 C126.134375 171.061875 127.26875 171.12375 128.4375 171.1875 C136.76767566 172.27468342 142.64517326 177.20636099 148.46875 182.9375 C150.23741915 185.31978906 150.72226023 187.06389383 151 190 C150.67 190.33 150.34 190.66 150 191 C136.00484933 190.33356425 128.08950957 184.26927526 118.53515625 174.47265625 C113.55970627 169.3714445 108.55100081 165.08609212 102.7265625 160.984375 C94.17271361 154.7589377 87.40806181 147.36578353 81 139 C80.57605957 138.45633789 80.15211914 137.91267578 79.71533203 137.35253906 C73.84844945 129.80297368 68.60165362 121.99107928 63.75 113.75 C63.01450928 112.51636719 63.01450928 112.51636719 62.26416016 111.2578125 C61.599729 110.10152344 61.599729 110.10152344 60.921875 108.921875 C60.52581055 108.23706055 60.12974609 107.55224609 59.72167969 106.84667969 C59 105 59 105 60 102 C59.67 101.34 59.34 100.68 59 100 C58.01 100 57.02 100 56 100 C54.62841797 98.26831055 54.62841797 98.26831055 53.1171875 95.69921875 C49.86019316 90.3538157 46.44959216 85.1437615 42.9453125 79.95703125 C41.8239505 78.28859172 40.70286199 76.61996834 39.58203125 74.95117188 C37.85846785 72.38730421 36.13321572 69.8246512 34.40283203 67.26538086 C0 16.34820792 0 16.34820792 0 0 Z " fill="#080808" transform="translate(225,549)"/>
<path d="M0 0 C10.03026678 0.54710546 19.5231997 3.84106657 29 7 C28 10 28 10 25.93359375 11.16796875 C25.10988281 11.50441406 24.28617187 11.84085938 23.4375 12.1875 C22.61121094 12.53167969 21.78492188 12.87585938 20.93359375 13.23046875 C20.29550781 13.48441406 19.65742188 13.73835937 19 14 C19.26874705 15.95236766 19.26874705 15.95236766 20 18 C22.98352894 19.78379415 22.98352894 19.78379415 26 21 C26 21.33 26 21.66 26 22 C22.7 22 19.4 22 16 22 C18.92784149 25.20232663 21.47626811 27.32401279 25.3125 29.375 C27.39453125 30.59765625 27.39453125 30.59765625 29 32 C29.5 35.8125 29.5 35.8125 29 39 C29.556875 39.226875 30.11375 39.45375 30.6875 39.6875 C33.7842378 41.44510794 35.76913334 43.21141668 38 46 C37.95875 47.134375 37.9175 48.26875 37.875 49.4375 C37.61611887 52.94161276 37.61611887 52.94161276 39.5390625 54.7109375 C40.81972776 55.75689917 42.12953535 56.7684135 43.46875 57.73828125 C43.9740625 58.15464844 44.479375 58.57101562 45 59 C45 59.66 45 60.32 45 61 C40.73531289 60.39301126 37.57128549 58.88647055 33.8125 56.8125 C32.65878906 56.17699219 31.50507813 55.54148437 30.31640625 54.88671875 C26.79538432 52.8835932 23.33959289 50.79316357 19.88671875 48.67578125 C15.28158027 46.00243293 10.54297811 43.57736184 5.79980469 41.15869141 C5.0937207 40.79308105 4.38763672 40.4274707 3.66015625 40.05078125 C2.71088257 39.56605347 2.71088257 39.56605347 1.74243164 39.0715332 C-0.16025018 37.90145186 -1.55458498 36.70190887 -3 35 C-3 34.34 -3 33.68 -3 33 C-0.16997104 33.90046376 2.54255983 34.76474505 5.1875 36.125 C7.11483327 37.21737453 7.11483327 37.21737453 10 37 C3.70682576 31.23986897 3.70682576 31.23986897 -3.0625 26.0625 C-4.031875 25.381875 -5.00125 24.70125 -6 24 C-6 23.67 -6 23.34 -6 23 C-4.35 23 -2.7 23 -1 23 C-3.14361118 18.71277764 -5.87380677 16.23566715 -9.57421875 13.33203125 C-10.04472656 12.89246094 -10.51523437 12.45289063 -11 12 C-11 11.34 -11 10.68 -11 10 C-8.36 10.33 -5.72 10.66 -3 11 C-3.66 9.02 -4.32 7.04 -5 5 C-3.2984375 5.2475 -3.2984375 5.2475 -1.5625 5.5 C0.71132519 5.85632203 0.71132519 5.85632203 3 6 C2.2575 5.071875 2.2575 5.071875 1.5 4.125 C0 2 0 2 0 0 Z " fill="#050505" transform="translate(327,599)"/>
<path d="M0 0 C0.625 1.8125 0.625 1.8125 1 4 C0.34 4.99 -0.32 5.98 -1 7 C-0.57625962 10.9470632 1.62461243 13.3216878 4.0390625 16.31640625 C4.35617187 16.87199219 4.67328125 17.42757813 5 18 C4.505 19.485 4.505 19.485 4 21 C1.03 18.69 -1.94 16.38 -5 14 C-4.938125 15.19625 -4.87625 16.3925 -4.8125 17.625 C-4.8051796 21.75370482 -5.80392758 24.4524984 -8 28 C-10 30 -10 30 -12.8125 30.375 C-16.94873558 29.88838405 -18.07963016 28.99159837 -21 26 C-22.88710892 23.45650536 -24.6879442 20.87433616 -26.44921875 18.2421875 C-27.94686329 15.93358257 -27.94686329 15.93358257 -30 14 C-32.10820797 14.3185177 -32.10820797 14.3185177 -34 15 C-34 17.64 -34 20.28 -34 23 C-34.60223389 22.71777588 -35.20446777 22.43555176 -35.82495117 22.14477539 C-42.15136495 19.37067499 -47.43033956 18.32572769 -54.3125 18.4375 C-55.2509375 18.44410645 -56.189375 18.45071289 -57.15625 18.45751953 C-68.49576271 18.75841782 -79.70587619 21.32435178 -90.34375 25.2265625 C-93.1884495 26.05487206 -94.24817765 25.82276265 -97 25 C-89.0215149 21.00145852 -80.70516242 18.80962922 -72.1171875 16.53564453 C-69.63551809 15.8777882 -67.1574949 15.20739532 -64.6796875 14.53515625 C-51.56893504 11.00828236 -51.56893504 11.00828236 -45.3125 9.984375 C-37.47144368 8.68682561 -29.89608931 6.09296366 -22.31933594 3.73535156 C-14.7884562 1.40239645 -7.95785565 -0.61484536 0 0 Z " fill="#0A0A0A" transform="translate(336,294)"/>
<path d="M0 0 C2.3125 -0.25 2.3125 -0.25 5 0 C7.54573511 2.74966008 8.51474995 5.17938573 9.28125 8.80859375 C9.48363281 9.72060547 9.68601562 10.63261719 9.89453125 11.57226562 C10.19423828 12.99055664 10.19423828 12.99055664 10.5 14.4375 C12.26752132 22.76765695 13.53626889 28.09490242 20.4375 33.546875 C23.28201121 36.19227042 25.41156459 39.46467694 27 43 C27 44.32 27 45.64 27 47 C20.84257809 47.74209971 16.64478332 45.16406876 11.375 42.375 C10.48635254 41.91786621 9.59770508 41.46073242 8.68212891 40.98974609 C6.11639246 39.66927696 3.55797874 38.33541537 1 37 C-1.20350875 35.86492644 -3.41257699 34.74273454 -5.625 33.625 C-6.53378906 33.16351562 -7.44257813 32.70203125 -8.37890625 32.2265625 C-11.06266531 30.97067525 -13.76975159 29.98567591 -16.5625 29 C-19.95216076 27.68630372 -20.79018008 27.31472988 -22.875 24.1875 C-23.24625 23.135625 -23.6175 22.08375 -24 21 C-24.73580618 19.80365326 -25.48635922 18.61627436 -26.25 17.4375 C-28 14 -28 14 -27.75 11.0625 C-27.5025 10.381875 -27.255 9.70125 -27 9 C-21.32732175 8.59948998 -17.59735524 9.81553342 -12.6875 12.4375 C-6.79413117 15.40802787 -1.70956054 17.11051041 5 17 C4.0768979 11.40708728 3.26773904 6.75307496 0 2 C0 1.34 0 0.68 0 0 Z " fill="#070707" transform="translate(311,544)"/>
<path d="M0 0 C3.15259753 1.57629876 3.58909075 4.78553624 4.75 7.9375 C7.21563103 14.3980091 10.16555886 20.22114368 14 26 C12.64092773 20.97555099 11.23312834 16.1883983 8.8125 11.5625 C7 8 7 8 7 5 C15.94689681 6.74668267 21.74324608 16.25252482 27 23 C27.5671875 23.70125 28.134375 24.4025 28.71875 25.125 C32.05298541 29.42245898 32.05298541 29.42245898 31.8046875 32.12890625 C31.53914063 32.74636719 31.27359375 33.36382813 31 34 C29.515 34.495 29.515 34.495 28 35 C28.33 37.64 28.66 40.28 29 43 C27.35 41.68 25.7 40.36 24 39 C23.4225 39.28875 22.845 39.5775 22.25 39.875 C20.16666667 40.91666667 18.08333333 41.95833333 16 43 C8.01480464 36.42395676 4.87602967 26.39748738 2.125 16.75 C1.80208984 15.63395386 1.80208984 15.63395386 1.47265625 14.49536133 C0.14029108 9.52932309 -0.19764745 5.13883379 0 0 Z " fill="#F4F4F4" transform="translate(321,483)"/>
<path d="M0 0 C9.89014977 -0.53380119 17.74716149 0.55030042 27 4 C28.59364696 4.56149044 30.18740415 5.12266811 31.78125 5.68359375 C33.43850515 6.28630581 35.09476408 6.89176441 36.75 7.5 C37.54954102 7.78431885 38.34908203 8.0686377 39.17285156 8.36157227 C41.421875 9.21875 41.421875 9.21875 45 11 C45.72363281 13.11132812 45.72363281 13.11132812 46 15 C36.86166413 18.78138036 27.00005635 19.94330069 17.625 16.1875 C16.08185664 15.4614637 14.54009352 14.7324835 13 14 C11.58668668 13.53142838 10.17013348 13.07247602 8.75 12.625 C4.35737784 10.97888497 1.88582312 8.69977323 -1 5 C-0.65234375 2.3046875 -0.65234375 2.3046875 0 0 Z " fill="#060606" transform="translate(348,673)"/>
<path d="M0 0 C22.43570644 4.56319453 22.43570644 4.56319453 30 12 C30.33 12.66 30.66 13.32 31 14 C28.69 13.67 26.38 13.34 24 13 C24.2475 14.0209375 24.2475 14.0209375 24.5 15.0625 C25.07089059 18.4164822 25.06659023 21.60389805 25 25 C21.78509882 26.60745059 19.5698929 26.40305242 16 26 C9.04177627 22.36670784 4.27688158 16.2432793 0.625 9.4375 C-0.19340226 6.24573117 -0.12857872 3.27875733 0 0 Z " fill="#060606" transform="translate(284,270)"/>
<path d="M0 0 C0.68929596 0.08704193 1.37859192 0.17408386 2.08877563 0.26376343 C14.64636502 1.87154331 14.64636502 1.87154331 18.5 4.125 C13.13254198 8.69727906 7.40392883 8.2832771 0.6875 8.25 C-0.08142578 8.25386719 -0.85035156 8.25773438 -1.64257812 8.26171875 C-5.87138554 8.25458152 -9.90546451 7.9630493 -14.1003418 7.37890625 C-19.87256204 6.76815144 -25.7014822 6.73571723 -31.5 6.5625 C-32.86068789 6.51921865 -34.22136515 6.47560161 -35.58203125 6.43164062 C-38.88793157 6.32613317 -42.19389999 6.22401744 -45.5 6.125 C-44.7265625 2.3359375 -44.7265625 2.3359375 -42.6875 0.4375 C-31.49124253 -6.28025448 -12.30484691 -1.58680514 0 0 Z " fill="#070707" transform="translate(734.5,772.875)"/>
<path d="M0 0 C0.99 0.33 1.98 0.66 3 1 C4.52160014 4.6037898 5 7.05220686 5 11 C5.804375 10.979375 6.60875 10.95875 7.4375 10.9375 C10 11 10 11 11 12 C11.23659614 15.42501072 11.39673972 18.84280568 11.51757812 22.2734375 C11.60910491 24.18686533 11.79739852 26.09512839 12 28 C12.66 28.33 13.32 28.66 14 29 C14.38281159 34.23175837 13.21854707 37.37802694 11 42 C8.75 41.875 8.75 41.875 6 41 C-0.64667754 32.74200669 -3.17228078 24.52544972 -3.25 14.0625 C-3.270625 13.37220703 -3.29125 12.68191406 -3.3125 11.97070312 C-3.34854352 7.21746335 -2.42064138 4.07049958 0 0 Z " fill="#F7F7F7" transform="translate(377,480)"/>
<path d="M0 0 C7.91717441 5.73078491 11.59115752 14.56999753 14.91015625 23.515625 C16.15235393 26.34730143 17.71354206 28.74695399 19.4375 31.3125 C23.33279118 37.23002745 25.6542351 43.34389208 28 50 C28.75491433 52.10931946 29.5161577 54.21597654 30.28686523 56.31958008 C30.78928596 57.69147172 31.28409613 59.06618435 31.76977539 60.4440918 C33.36002456 64.80388225 35.31492345 68.26399026 38 72 C37.67 72.66 37.34 73.32 37 74 C25.36346083 63.75613174 19.5798831 50.48829714 13.875 36.4375 C12.71175368 33.60035319 11.54152923 30.7661646 10.3671875 27.93359375 C10.08656464 27.25334137 9.80594177 26.57308899 9.51681519 25.8722229 C7.32148831 20.61227544 4.83582801 15.54365787 2.15625 10.51098633 C0.51705168 6.95119859 0.1497591 3.89373652 0 0 Z " fill="#0C0C0C" transform="translate(206,489)"/>
<path d="M0 0 C0.99 0 1.98 0 3 0 C5.61112249 5.22224498 3.61596874 11.94311337 2.5 17.4375 C2.35691406 18.16904297 2.21382813 18.90058594 2.06640625 19.65429688 C1.71678704 21.43735486 1.35922312 23.21885203 1 25 C1.66 25 2.32 25 3 25 C3.10957031 24.45472656 3.21914063 23.90945313 3.33203125 23.34765625 C4.51009937 17.74464935 6.087035 12.3945613 8 7 C8.66 7 9.32 7 10 7 C9.40009531 16.72259326 7.88629201 27.52847071 1 35 C-1.0546875 35.79296875 -1.0546875 35.79296875 -3 36 C-5.48615558 34.15840327 -6.00156904 32.99529289 -7 30 C-7.76637205 19.74820343 -7.15667773 10.59914604 -1.55078125 1.69921875 C-1.03902344 1.13847656 -0.52726562 0.57773437 0 0 Z " fill="#F2F2F2" transform="translate(393,389)"/>
<path d="M0 0 C3.79063838 2.0811348 6.903757 4.15688783 9 8 C9.25 10.6875 9.25 10.6875 9 13 C7.38219843 14.61780157 5.54364482 14.22272147 3.30859375 14.31640625 C2.36435547 14.35830078 1.42011719 14.40019531 0.44726562 14.44335938 C-1.04256836 14.50233398 -1.04256836 14.50233398 -2.5625 14.5625 C-3.55958984 14.60568359 -4.55667969 14.64886719 -5.58398438 14.69335938 C-8.0558415 14.79980298 -10.5278031 14.90181928 -13 15 C-12.67 17.31 -12.34 19.62 -12 22 C-15 20 -15 20 -15.65234375 18.08203125 C-16.27849806 13.09852917 -16.16134683 9.73476508 -13.30078125 5.5078125 C-9.53198424 1.13917693 -5.74794598 -0.957991 0 0 Z " fill="#0C0C0C" transform="translate(256,204)"/>
<path d="M0 0 C0.639375 0.391875 1.27875 0.78375 1.9375 1.1875 C3.66682102 2.21097571 5.4108495 3.21273524 7.1953125 4.13671875 C15.61499241 8.54107276 15.61499241 8.54107276 18 13 C18.66939393 16.89182518 18.57953236 20.03411274 16.5 23.5 C16.005 23.995 15.51 24.49 15 25 C10.52111513 24.80502367 8.4562847 24.39476988 5.015625 21.41796875 C4.0763192 20.3563164 3.15456447 19.27890471 2.25 18.1875 C1.78207031 17.65318359 1.31414062 17.11886719 0.83203125 16.56835938 C-6 8.70087863 -6 8.70087863 -6 6 C-2.78147169 6.63065757 -0.49198931 7.78020695 2.25 9.5625 C2.95640625 10.01753906 3.6628125 10.47257812 4.390625 10.94140625 C4.92171875 11.29074219 5.4528125 11.64007813 6 12 C5.73445313 11.46890625 5.46890625 10.9378125 5.1953125 10.390625 C3.46354167 6.92708333 1.73177083 3.46354167 0 0 Z " fill="#F4F4F4" transform="translate(279,460)"/>
<path d="M0 0 C7.50431058 0.64322662 14.62083339 2.18099455 21.9375 3.9375 C24.17544491 4.46886647 26.41372225 4.99883498 28.65234375 5.52734375 C29.72419922 5.78128906 30.79605469 6.03523437 31.90039062 6.296875 C35.52384546 7.11883073 39.16125175 7.81784386 42.82006836 8.46264648 C46.54192103 9.38008379 49.66097262 11.14498479 53 13 C53 13.66 53 14.32 53 15 C34.39576535 14.94599642 16.0904629 10.42560912 0 1 C0 0.67 0 0.34 0 0 Z " fill="#181818" transform="translate(479,785)"/>
<path d="M0 0 C2.67433178 4.01149768 2.81902411 7.28440661 2 12 C-0.24375535 14.9916738 -1.78187864 16.57201141 -5.3125 17.8125 C-5.869375 17.874375 -6.42625 17.93625 -7 18 C-7.66 16.35 -8.32 14.7 -9 13 C-11.96175123 13.61277612 -13.38058783 14.25372522 -16 16 C-16.99 16 -17.98 16 -19 16 C-19.18669566 13.01286948 -19.21511051 11.6812769 -18 9 C-12.91157628 4.39928462 -7.1595636 -0.71595636 0 0 Z " fill="#060606" transform="translate(588,766)"/>
<path d="M0 0 C11.3362883 1.35560996 22.00518749 9.1272457 30 17 C30.33 17.99 30.66 18.98 31 20 C25.22044246 19.57188463 20.63867626 18.25417692 15.3203125 15.9609375 C12.89022372 14.88788367 12.89022372 14.88788367 9.75 14.1875 C5.71382445 12.44460601 3.3299161 9.68967041 1 6 C0.125 2.5625 0.125 2.5625 0 0 Z " fill="#F5F5F5" transform="translate(293,445)"/>
<path d="M0 0 C3.04370043 0.0602713 6.08267412 0.14739957 9.125 0.25 C10.40890625 0.27126953 10.40890625 0.27126953 11.71875 0.29296875 C17.39947622 0.51145822 20.58114206 1.37798529 25 5 C24.66466224 8.12981912 23.99933599 9.00061159 21.625 11.1875 C17.38299011 14.11650683 14.07717839 14.35015023 9 14 C6.0625 12.625 6.0625 12.625 4 11 C4 10.34 4 9.68 4 9 C7.3 8.67 10.6 8.34 14 8 C13.07316406 7.67386719 12.14632813 7.34773438 11.19140625 7.01171875 C9.99386719 6.57472656 8.79632813 6.13773437 7.5625 5.6875 C6.36753906 5.25824219 5.17257813 4.82898438 3.94140625 4.38671875 C2.97074219 3.92910156 2.00007812 3.47148437 1 3 C0.67 2.01 0.34 1.02 0 0 Z " fill="#101010" transform="translate(247,410)"/>
<path d="M0 0 C2.49401506 2.3092732 4.25228761 4.4051892 6.0625 7.3125 C9.49963513 12.33767857 14.82331978 15.01728933 20 18 C19.67 18.99 19.34 19.98 19 21 C18.34 21 17.68 21 17 21 C18.2375 22.423125 18.2375 22.423125 19.5 23.875 C22 26.75 22 26.75 22 29 C15.22403259 28.15801588 9.8674094 25.87546802 5 21 C3.87146429 17.6101819 3.51131916 14.59633337 3.2578125 11.0390625 C2.94005785 7.29340917 1.88961681 5.1779919 0 2 C0 1.34 0 0.68 0 0 Z " fill="#EEEEEE" transform="translate(304,415)"/>
<path d="M0 0 C4.81241641 2.55352707 7.87816037 5.62942451 11 10 C11.8125 12.875 11.8125 12.875 12 15 C10.296875 15.67578125 10.296875 15.67578125 8 16 C5.703125 14.85546875 5.703125 14.85546875 3.25 13.1875 C-1.18853947 10.34920547 -4.84066091 8.95543317 -10 8 C-9.64505955 5.37344067 -9.27538036 3.42031739 -7.8125 1.1875 C-5.04316251 -0.62689353 -3.25115092 -0.4462364 0 0 Z " fill="#F3F3F3" transform="translate(271,358)"/>
<path d="M0 0 C0.66 0 1.32 0 2 0 C9.49770931 10.37698428 15.93914131 24.06752765 16 37 C12.08867505 35.51639398 10.83529274 33.71439883 9 30 C7.70915385 26.80491647 6.5633195 23.56890265 5.4375 20.3125 C5.13392578 19.46494141 4.83035156 18.61738281 4.51757812 17.74414062 C2.47775131 11.90019233 1.05788167 6.09688938 0 0 Z " fill="#0D0D0D" transform="translate(212,482)"/>
<path d="M0 0 C6.04001728 0.11843171 6.04001728 0.11843171 8.578125 2.44921875 C10.6856092 5.24102971 11.89564529 7.32914827 12.4375 10.8125 C12 13 12 13 10 15 C7.9765625 15.265625 7.9765625 15.265625 5.625 15.25 C4.85414063 15.25515625 4.08328125 15.2603125 3.2890625 15.265625 C0.8007639 14.97688045 -0.84234198 14.24139229 -3 13 C-2.88557539 11.39504433 -2.75805306 9.79101881 -2.625 8.1875 C-2.55539062 7.29417969 -2.48578125 6.40085937 -2.4140625 5.48046875 C-2 3 -2 3 0 0 Z " fill="#F2F2F2" transform="translate(365,320)"/>
<path d="M0 0 C-1 3 -1 3 -2.63671875 3.94921875 C-6.89440451 5.48198562 -10.40430933 6.43768483 -15 6 C-15.66 5.67 -16.32 5.34 -17 5 C-21.52792815 4.52046382 -25.58246425 4.55820312 -29.75 6.5 C-32.89329193 7.95075012 -34.61203631 8.3079967 -38 8 C-38 7.34 -38 6.68 -38 6 C-28.95823637 0.01782305 -10.5345133 -5.26725665 0 0 Z " fill="#EBEBEB" transform="translate(335,336)"/>
<path d="M0 0 C8.16760498 1.42608976 14.1441838 4.42945587 21 9 C23.55651547 9.79140106 26.13090073 10.45507728 28.72265625 11.12109375 C31 12 31 12 33 15 C32 16 32 16 28.125 16.3125 C19.22168384 16.17095284 12.08315697 12.82146324 5.75390625 6.68359375 C4.00099268 4.920334 4.00099268 4.920334 1.77734375 3.41015625 C1.19082031 2.94480469 0.60429687 2.47945312 0 2 C0 1.34 0 0.68 0 0 Z " fill="#0E0E0E" transform="translate(394,676)"/>
<path d="M0 0 C1.11375 1.0209375 1.11375 1.0209375 2.25 2.0625 C2.25 2.7225 2.25 3.3825 2.25 4.0625 C1.52409668 4.08231934 0.79819336 4.10213867 0.05029297 4.12255859 C-3.25848475 4.2181819 -6.5666633 4.32771007 -9.875 4.4375 C-11.01710938 4.4684375 -12.15921875 4.499375 -13.3359375 4.53125 C-14.44453125 4.56992187 -15.553125 4.60859375 -16.6953125 4.6484375 C-17.71125488 4.6798584 -18.72719727 4.7112793 -19.77392578 4.74365234 C-22.99448774 5.08869368 -25.70196787 5.99406831 -28.75 7.0625 C-31.625 7.1875 -31.625 7.1875 -33.75 7.0625 C-31.09031864 3.6837196 -27.57760284 2.7385633 -23.625 1.5 C-22.95428467 1.28456543 -22.28356934 1.06913086 -21.5925293 0.84716797 C-5.85486265 -4.12501687 -5.85486265 -4.12501687 0 0 Z " fill="#0D0D0D" transform="translate(283.75,286.9375)"/>
<path d="M0 0 C8.82161132 1.35349632 16.78245948 6.78245948 23 13 C23 13.99 23 14.98 23 16 C18.85759729 16.84252259 15.97725696 17.30557367 12.31396484 14.88671875 C10.46764194 13.40843871 8.72675475 11.86625199 7 10.25 C6.42419189 9.71213867 5.84838379 9.17427734 5.25512695 8.62011719 C2.43909212 5.84836626 0.72020734 3.88367619 0 0 Z " fill="#F2F2F2" transform="translate(282,453)"/>
<path d="M0 0 C12.66970387 0.59453303 12.66970387 0.59453303 18 4 C18 4.66 18 5.32 18 6 C18.74765625 6.04898438 19.4953125 6.09796875 20.265625 6.1484375 C21.25046875 6.22320313 22.2353125 6.29796875 23.25 6.375 C24.22453125 6.44460938 25.1990625 6.51421875 26.203125 6.5859375 C28.89633189 6.98465249 30.66963279 7.63507063 33 9 C33 9.66 33 10.32 33 11 C23.49011556 11.48355345 14.12514304 10.19143915 6 5 C4.74224664 4.40883159 3.47257756 3.84164958 2.1875 3.3125 C0.6096875 2.6628125 0.6096875 2.6628125 -1 2 C-0.67 1.34 -0.34 0.68 0 0 Z " fill="#1C1C1C" transform="translate(413,676)"/>
<path d="M0 0 C3.96409444 1.5198658 5.6971501 3.90150936 8.125 7.3125 C8.80820312 8.25738281 9.49140625 9.20226562 10.1953125 10.17578125 C12.97254295 14.52196657 14.29570806 17.82510899 14 23 C7.48611457 20.10805949 3.65281068 14.23612347 0.6796875 7.93359375 C-0.26917456 5.23424478 -0.2825278 2.82527797 0 0 Z " fill="#EEEEEE" transform="translate(474,656)"/>
<path d="M0 0 C1.04414062 -0.01224609 2.08828125 -0.02449219 3.1640625 -0.03710938 C4.15921875 -0.03904297 5.154375 -0.04097656 6.1796875 -0.04296875 C7.08187012 -0.04707764 7.98405273 -0.05118652 8.91357422 -0.05541992 C11.125 0.1875 11.125 0.1875 13.125 2.1875 C6.47682943 3.84444956 0.15008272 4.63662695 -6.6875 4.9375 C-8.0787207 5.02064453 -8.0787207 5.02064453 -9.49804688 5.10546875 C-10.39201172 5.14800781 -11.28597656 5.19054687 -12.20703125 5.234375 C-13.00858643 5.27401367 -13.8101416 5.31365234 -14.63598633 5.35449219 C-17.14846326 5.16710431 -18.71512701 4.4481719 -20.875 3.1875 C-20.545 2.5275 -20.215 1.8675 -19.875 1.1875 C-13.28876407 -0.02901652 -6.6807727 0.00421766 0 0 Z " fill="#151515" transform="translate(833.875,774.8125)"/>
<path d="M0 0 C5.59582977 0.27979149 8.99466213 0.74432851 13 5 C13 5.99 13 6.98 13 8 C9.54590969 9.72704516 5.77681416 9.48884297 2 9 C-0.625 7.25 -0.625 7.25 -2 5 C-1.80984746 2.78155374 -1.58477845 1.58477845 0 0 Z " fill="#F3F3F3" transform="translate(277,349)"/>
<path d="M0 0 C5.2193712 -0.6524214 8.02909179 0.87923947 12.265625 3.61328125 C14 5 14 5 16 8 C15.625 10.6875 15.625 10.6875 15 13 C14.01 13 13.02 13 12 13 C11.77570313 12.40316406 11.55140625 11.80632812 11.3203125 11.19140625 C9.17716968 7.63429643 5.69935418 6.37770046 2.1171875 4.46484375 C1.41851562 3.98144531 0.71984375 3.49804688 0 3 C0 2.01 0 1.02 0 0 Z " fill="#161616" transform="translate(459,337)"/>
<path d="M0 0 C10.12498963 -0.76415016 19.69681227 3.32293676 28 9 C28.33 9.66 28.66 10.32 29 11 C22.94767198 10.66375955 18.92014097 9.12874251 13.60546875 6.26953125 C10.15543093 4.58847834 6.6432836 3.61911892 2.93359375 2.67578125 C1 2 1 2 0 0 Z " fill="#E8E8E8" transform="translate(300,443)"/>
<path d="M0 0 C4.26925946 1.31918448 8.10178796 2.96073388 12.0546875 5.0390625 C13.16328125 5.61914062 14.271875 6.19921875 15.4140625 6.796875 C16.55617188 7.40015625 17.69828125 8.0034375 18.875 8.625 C20.0403125 9.23601563 21.205625 9.84703125 22.40625 10.4765625 C25.27294981 11.98040502 28.13742221 13.48833018 31 15 C31 15.99 31 16.98 31 18 C25.20202403 16.3666328 20.18210885 13.57644694 14.9375 10.6875 C14.05255859 10.21376953 13.16761719 9.74003906 12.25585938 9.25195312 C7.46218073 6.62316161 3.61090722 4.12138891 0 0 Z " fill="#161616" transform="translate(394,761)"/>
<path d="M0 0 C5.65009259 -0.54479897 9.04618378 1.18726266 13.8125 3.875 C14.49248047 4.23980469 15.17246094 4.60460937 15.87304688 4.98046875 C20.85661702 7.71323403 20.85661702 7.71323403 22 10 C14.08232633 9.49729056 7.03213833 8.25400211 1.4375 2.25 C0.963125 1.5075 0.48875 0.765 0 0 Z " fill="#111111" transform="translate(414,713)"/>
<path d="M0 0 C-0.31723076 3.05081496 -0.88901781 3.90666113 -3.28515625 5.921875 C-4.20167969 6.52515625 -5.11820313 7.1284375 -6.0625 7.75 C-7.44115234 8.67039062 -7.44115234 8.67039062 -8.84765625 9.609375 C-9.55792969 10.06828125 -10.26820313 10.5271875 -11 11 C-11.99 10.34 -12.98 9.68 -14 9 C-13.66032174 5.82966958 -13.00130809 5.00117393 -10.5625 2.8125 C-6.71494776 0.09106061 -4.69492647 -0.10206362 0 0 Z " fill="#0D0D0D" transform="translate(607,772)"/>
<path d="M0 0 C0 0.66 0 1.32 0 2 C-0.60473145 2.14099121 -1.20946289 2.28198242 -1.83251953 2.42724609 C-4.59736745 3.0735948 -7.3611825 3.7242599 -10.125 4.375 C-11.07632812 4.59671875 -12.02765625 4.8184375 -13.0078125 5.046875 C-16.89779271 5.96534255 -20.66218321 6.87918625 -24.4296875 8.2265625 C-27.13726262 9.04130395 -28.39416576 9.00224394 -31 8 C-25.06263759 5.03131879 -19.0542742 3.00083791 -12.6875 1.1875 C-11.89875488 0.95651611 -11.11000977 0.72553223 -10.29736328 0.48754883 C-9.54310059 0.2789624 -8.78883789 0.07037598 -8.01171875 -0.14453125 C-7.33584717 -0.33378174 -6.65997559 -0.52303223 -5.96362305 -0.71801758 C-3.71085166 -1.04152261 -2.15392273 -0.68149935 0 0 Z " fill="#212121" transform="translate(270,311)"/>
<path d="M0 0 C3.5625 0.125 3.5625 0.125 5.5625 1.125 C4.8125 5.875 4.8125 5.875 2.5625 8.125 C-2.89204545 7.67045455 -2.89204545 7.67045455 -5.4375 5.125 C-4.79234434 0.86697264 -4.46867 0.16249709 0 0 Z " fill="#0D0D0D" transform="translate(230.4375,418.875)"/>
<path d="M0 0 C1.875 0.3125 1.875 0.3125 4 1 C6.42130331 4.63195496 6.21022785 6.38349348 6.125 10.6875 C6.10695313 11.86699219 6.08890625 13.04648437 6.0703125 14.26171875 C6.03550781 15.61716797 6.03550781 15.61716797 6 17 C1.67488672 13.08680227 0.12016048 8.24299561 -0.1875 2.5 C-0.125625 1.675 -0.06375 0.85 0 0 Z " fill="#F0F0F0" transform="translate(423,569)"/>
<path d="M0 0 C2 1.5 2 1.5 3 3 C-2.36439644 5.68219822 -6.01006953 6.3152595 -12 6 C-11.6875 4.125 -11.6875 4.125 -11 2 C-7.22364747 -0.51756835 -4.43634442 -0.63772451 0 0 Z " fill="#222222" transform="translate(290,251)"/>
<path d="M0 0 C-0.1875 1.875 -0.1875 1.875 -1 4 C-4.29826907 5.78284814 -6.1774751 6 -10 6 C-10.33 7.98 -10.66 9.96 -11 12 C-11.99 11.67 -12.98 11.34 -14 11 C-12.26171929 3.52539295 -7.93619678 -0.94478533 0 0 Z " fill="#F7F7F7" transform="translate(395,323)"/>
<path d="M0 0 C2.875 0.125 2.875 0.125 6 1 C7.85233285 3.40803271 9 4.92741925 9 8 C7.741875 7.87625 6.48375 7.7525 5.1875 7.625 C4.12595703 7.52058594 4.12595703 7.52058594 3.04296875 7.4140625 C1 7 1 7 -2 5 C-1.125 1.125 -1.125 1.125 0 0 Z " fill="#141414" transform="translate(227,459)"/>
<path d="M0 0 C4.05819183 0.65503282 7.53971282 1.94559121 11.3125 3.5625 C12.38113281 4.01753906 13.44976562 4.47257813 14.55078125 4.94140625 C15.76314453 5.46541016 15.76314453 5.46541016 17 6 C17 6.66 17 7.32 17 8 C10.6471007 8.67584035 6.09412462 6.88071725 1 3 C0.67 2.01 0.34 1.02 0 0 Z " fill="#232323" transform="translate(416,696)"/>
<path d="M0 0 C-17.47572816 9 -17.47572816 9 -23 9 C-23 8.34 -23 7.68 -23 7 C-4.9271155 -1.64237183 -4.9271155 -1.64237183 0 0 Z " fill="#222222" transform="translate(225,324)"/>
<path d="M0 0 C5.26053037 -0.31563182 8.44573816 0.33409063 13 3 C13 3.99 13 4.98 13 6 C10.34501768 7.0169313 9.30844625 7.13022151 6.640625 6.00390625 C5.85171875 5.52824219 5.0628125 5.05257813 4.25 4.5625 C3.45078125 4.08941406 2.6515625 3.61632812 1.828125 3.12890625 C1.22484375 2.75636719 0.6215625 2.38382812 0 2 C0 1.34 0 0.68 0 0 Z " fill="#1A1A1A" transform="translate(224,448)"/>
<path d="M0 0 C6.43082787 1.28616557 11.40420264 3.60625252 17 7 C17 7.33 17 7.66 17 8 C11.42789287 7.64090865 6.78329161 7.14997252 2 4 C0.625 1.8125 0.625 1.8125 0 0 Z " fill="#151515" transform="translate(380,663)"/>
<path d="M0 0 C-1.41573821 3.39187279 -3.04230966 5.09697541 -6 7.25 C-7.051875 8.03117188 -7.051875 8.03117188 -8.125 8.828125 C-10 10 -10 10 -12 10 C-12 7.8125 -12 7.8125 -11 5 C-7.59825374 2.17792351 -4.47899726 0 0 0 Z " fill="#1B1B1B" transform="translate(648,786)"/>
<path d="M0 0 C1.58025005 0.21192095 3.16398461 0.39923371 4.75 0.5625 C5.54921875 0.64628906 6.3484375 0.73007812 7.171875 0.81640625 C8.07679688 0.90728516 8.07679688 0.90728516 9 1 C9 1.33 9 1.66 9 2 C8.13117188 2.04898437 7.26234375 2.09796875 6.3671875 2.1484375 C5.21476562 2.22320312 4.06234375 2.29796875 2.875 2.375 C1.16957031 2.47941406 1.16957031 2.47941406 -0.5703125 2.5859375 C-3.96009453 2.99518226 -6.79136653 3.86968594 -10 5 C-12.875 5.125 -12.875 5.125 -15 5 C-12.86699672 2.63442627 -11.04050601 1.37032472 -8.0625 0.25 C-7.39347656 -0.01296875 -6.72445313 -0.2759375 -6.03515625 -0.546875 C-3.6256167 -1.08335598 -2.34555749 -0.70411573 0 0 Z " fill="#4A4A4A" transform="translate(265,289)"/>
<path d="M0 0 C0.66 0 1.32 0 2 0 C4.4294516 3.6441774 4.16179575 5.71241272 4 10 C2.125 9.6875 2.125 9.6875 0 9 C-2 6 -2 6 -1.6875 3.375 C-1 1 -1 1 0 0 Z " fill="#E4E4E4" transform="translate(318,500)"/>
<path d="M0 0 C0.66 0.33 1.32 0.66 2 1 C-0.97 3.97 -3.94 6.94 -7 10 C-5.68 10.33 -4.36 10.66 -3 11 C-3.66 12.32 -4.32 13.64 -5 15 C-6.32 14.67 -7.64 14.34 -9 14 C-9.80859375 12.328125 -9.80859375 12.328125 -10 10 C-7.91015625 7.421875 -7.91015625 7.421875 -5.0625 4.75 C-4.12535156 3.85796875 -3.18820312 2.9659375 -2.22265625 2.046875 C-1.48917969 1.37140625 -0.75570312 0.6959375 0 0 Z " fill="#ECECEC" transform="translate(716,734)"/>
<path d="M0 0 C1.875 0.25 1.875 0.25 4 1 C6.02755186 3.93995019 6 5.27704003 6 9 C3.68001641 8.60000283 2.13676576 8.09432121 0.1875 6.75 C-1 5 -1 5 -0.6875 2.3125 C-0.460625 1.549375 -0.23375 0.78625 0 0 Z " fill="#0F0F0F" transform="translate(204,459)"/>
<path d="M0 0 C0.66 0 1.32 0 2 0 C2.40214229 6.16618181 0.96818336 11.17745757 -1 17 C-1.33 17 -1.66 17 -2 17 C-2.25287193 10.93107371 -1.69832609 5.83799592 0 0 Z " fill="#D8D8D8" transform="translate(405,480)"/>
<path d="M0 0 C-1.07401108 2.91517292 -1.77810176 4.77810176 -4 7 C-6.625 7.125 -6.625 7.125 -9 7 C-8.62607279 4.28902773 -8.18642373 3.17999533 -6.1875 1.25 C-4 0 -4 0 0 0 Z " fill="#0E0E0E" transform="translate(606,782)"/>
<path d="M0 0 C5.78461538 4.30769231 5.78461538 4.30769231 6.875 7.8125 C6.936875 8.8953125 6.936875 8.8953125 7 10 C4.625 9.75 4.625 9.75 2 9 C-0.17831524 6.09557968 -0.19715281 3.54875053 0 0 Z " fill="#E2E2E2" transform="translate(456,630)"/>
<path d="M0 0 C0.33 1.65 0.66 3.3 1 5 C-2.34373475 4.44271087 -5.03312999 3.64826111 -8 2 C-8 1.34 -8 0.68 -8 0 C-5.13822943 -1.43088528 -3.06624227 -0.59991697 0 0 Z " fill="#202020" transform="translate(454,739)"/>
<path d="M0 0 C2.875 0.1875 2.875 0.1875 6 1 C7.375 3.5625 7.375 3.5625 8 6 C4.26512223 5.5020163 2.18762365 5.12508244 -1 3 C-0.67 2.01 -0.34 1.02 0 0 Z " fill="#222222" transform="translate(365,595)"/>
<path d="M0 0 C1.32 0.66 2.64 1.32 4 2 C4 3.98 4 5.96 4 8 C1.13275314 7.42655063 0.1385485 7.1385485 -2 5 C-1.46428571 1.46428571 -1.46428571 1.46428571 0 0 Z " fill="#F4F4F4" transform="translate(324,419)"/>
<path d="M0 0 C1.22589844 0.01353516 1.22589844 0.01353516 2.4765625 0.02734375 C3.41628906 0.04474609 3.41628906 0.04474609 4.375 0.0625 C4.375 0.7225 4.375 1.3825 4.375 2.0625 C1.45791076 4.04612069 0.25119096 4.0501191 -3.375 3.6875 C-4.4475 3.48125 -5.52 3.275 -6.625 3.0625 C-6.625 2.4025 -6.625 1.7425 -6.625 1.0625 C-4.21954362 -0.14022819 -2.67503047 -0.03821472 0 0 Z " fill="#161616" transform="translate(491.625,742.9375)"/>
<path d="M0 0 C-1.450954 3.82524236 -3.38181932 5.19090966 -7 7 C-7.66 7 -8.32 7 -9 7 C-8.02086745 1.32103121 -5.73500486 -0.46500039 0 0 Z " fill="#151515" transform="translate(622,780)"/>
<path d="M0 0 C1.23556641 0.01740234 1.23556641 0.01740234 2.49609375 0.03515625 C3.32238281 0.04417969 4.14867187 0.05320312 5 0.0625 C5.63808594 0.07410156 6.27617187 0.08570313 6.93359375 0.09765625 C6.60359375 1.08765625 6.27359375 2.07765625 5.93359375 3.09765625 C3.62359375 3.42765625 1.31359375 3.75765625 -1.06640625 4.09765625 C-1.72640625 3.10765625 -2.38640625 2.11765625 -3.06640625 1.09765625 C-2.06640625 0.09765625 -2.06640625 0.09765625 0 0 Z " fill="#1A1A1A" transform="translate(260.06640625,523.90234375)"/>
<path d="M0 0 C0.66 0 1.32 0 2 0 C2.05391993 1.79133978 2.09275571 3.58313899 2.125 5.375 C2.14820313 6.37273437 2.17140625 7.37046875 2.1953125 8.3984375 C2 11 2 11 0 13 C-0.33 12.67 -0.66 12.34 -1 12 C-0.90997602 9.97591245 -0.75358962 7.95455713 -0.5625 5.9375 C-0.46066406 4.83277344 -0.35882813 3.72804688 -0.25390625 2.58984375 C-0.17011719 1.73519531 -0.08632813 0.88054687 0 0 Z " fill="#CECECE" transform="translate(399,478)"/>
<path d="M0 0 C-1.33934244 2.67868487 -2.51692397 2.74954078 -5.3125 3.6875 C-6.09238281 3.95949219 -6.87226563 4.23148437 -7.67578125 4.51171875 C-10.18274511 5.03839183 -11.60132343 4.8178554 -14 4 C-4.58997722 -0.59225513 -4.58997722 -0.59225513 0 0 Z " fill="#131313" transform="translate(253,315)"/>
<path d="M0 0 C5.03985731 0.44469329 7.37634988 2.71343362 11 6 C10.01 6.495 10.01 6.495 9 7 C6.8359375 6.00390625 6.8359375 6.00390625 4.375 4.5625 C3.55773437 4.08941406 2.74046875 3.61632812 1.8984375 3.12890625 C1.27195312 2.75636719 0.64546875 2.38382813 0 2 C0 1.34 0 0.68 0 0 Z " fill="#1E1E1E" transform="translate(298,607)"/>
<path d="M0 0 C0.66 0.33 1.32 0.66 2 1 C1.319375 1.5259375 1.319375 1.5259375 0.625 2.0625 C-1.64661334 4.77096206 -2.16798854 7.60795328 -3 11 C-3.99 10.67 -4.98 10.34 -6 10 C-4.79157144 5.56909529 -3.48331435 3.01887244 0 0 Z " fill="#DFDFDF" transform="translate(387,324)"/>
<path d="M0 0 C-1.39332574 3.36720387 -2.9789286 4.9859524 -6 7 C-6.33 5.68 -6.66 4.36 -7 3 C-3.375 0 -3.375 0 0 0 Z " fill="#161616" transform="translate(626,786)"/>
<path d="M0 0 C0 0.66 0 1.32 0 2 C-3.4352048 4.29013653 -4.985331 4.17842973 -9 4 C-9 3.34 -9 2.68 -9 2 C-5.86501708 0.14223235 -3.62528568 -0.20140476 0 0 Z " fill="#262626" transform="translate(406,734)"/>
<path d="M0 0 C3.24208567 0.35049575 4.61527704 0.56221181 6.8125 3.0625 C7.204375 3.701875 7.59625 4.34125 8 5 C7.67 5.66 7.34 6.32 7 7 C5.82780457 6.21654285 4.66236332 5.42297164 3.5 4.625 C2.8503125 4.18414063 2.200625 3.74328125 1.53125 3.2890625 C1.0259375 2.86367188 0.520625 2.43828125 0 2 C0 1.34 0 0.68 0 0 Z " fill="#1E1E1E" transform="translate(283,595)"/>
<path d="M0 0 C3.38297413 0.17805127 4.76272061 0.78837244 7.3125 3.0625 C8.1478125 4.0215625 8.1478125 4.0215625 9 5 C5.0507432 4.44894091 1.65079826 3.61064629 -2 2 C-1.34 1.34 -0.68 0.68 0 0 Z " fill="#D9D9D9" transform="translate(439,780)"/>
<path d="M0 0 C1.98 0 3.96 0 6 0 C6 1.32 6 2.64 6 4 C4.35 3.67 2.7 3.34 1 3 C0.67 2.01 0.34 1.02 0 0 Z " fill="#1F1F1F" transform="translate(459,778)"/>
<path d="M0 0 C1.27875 0.103125 2.5575 0.20625 3.875 0.3125 C4.95394531 0.39951172 4.95394531 0.39951172 6.0546875 0.48828125 C8 1 8 1 10 4 C3.47692308 3.38461538 3.47692308 3.38461538 1.0625 1.4375 C0.711875 0.963125 0.36125 0.48875 0 0 Z " fill="#323232" transform="translate(360,666)"/>
<path d="M0 0 C0.66 0 1.32 0 2 0 C3.125 4.75 3.125 4.75 2 7 C1.01 6.67 0.02 6.34 -1 6 C-1.042721 4.33388095 -1.04063832 2.66617115 -1 1 C-0.67 0.67 -0.34 0.34 0 0 Z " fill="#D9D9D9" transform="translate(436,605)"/>
<path d="M0 0 C0.66 0.33 1.32 0.66 2 1 C2 3.64 2 6.28 2 9 C1.01 8.34 0.02 7.68 -1 7 C-1.25 3.9375 -1.25 3.9375 -1 1 C-0.67 0.67 -0.34 0.34 0 0 Z " fill="#DADADA" transform="translate(303,493)"/>
<path d="M0 0 C2.99324263 1.0975223 3.84610901 1.67682892 5.25 4.625 C5.4975 5.40875 5.745 6.1925 6 7 C4.125 6.875 4.125 6.875 2 6 C0.75 2.9375 0.75 2.9375 0 0 Z " fill="#EFEFEF" transform="translate(308,476)"/>
<path d="M0 0 C3.68754757 0.49831724 5.60490662 1.10067643 8 4 C5 5 5 5 2.3125 3.6875 C1.549375 3.130625 0.78625 2.57375 0 2 C0 1.34 0 0.68 0 0 Z " fill="#313131" transform="translate(224,469)"/>
<path d="M0 0 C1.98 0 3.96 0 6 0 C5.67 0.99 5.34 1.98 5 3 C3.35 3.33 1.7 3.66 0 4 C0 2.68 0 1.36 0 0 Z " fill="#191919" transform="translate(199,396)"/>
<path d="M0 0 C0 0.99 0 1.98 0 3 C-1.75 4.75 -1.75 4.75 -4 6 C-5.32 5.67 -6.64 5.34 -8 5 C-4.04 2.525 -4.04 2.525 0 0 Z " fill="#333333" transform="translate(637,784)"/>
<path d="M0 0 C1.98 0 3.96 0 6 0 C5.67 1.32 5.34 2.64 5 4 C3.0625 3.6875 3.0625 3.6875 1 3 C0.67 2.01 0.34 1.02 0 0 Z " fill="#090909" transform="translate(428,759)"/>
<path d="M0 0 C1.45922693 0.11409593 2.91740598 0.24165544 4.375 0.375 C5.59316406 0.47941406 5.59316406 0.47941406 6.8359375 0.5859375 C9 1 9 1 11 3 C4.6 3.36923077 4.6 3.36923077 1.5625 1.5 C1.046875 1.005 0.53125 0.51 0 0 Z " fill="#1A1A1A" transform="translate(344,661)"/>
<path d="M0 0 C0 0.66 0 1.32 0 2 C-3.13498292 3.85776765 -5.37471432 4.20140476 -9 4 C-6.19632015 0.92930303 -4.26207314 0 0 0 Z " fill="#131313" transform="translate(259,290)"/>
<path d="M0 0 C1.65 0 3.3 0 5 0 C4.34 1.32 3.68 2.64 3 4 C1.68 3.67 0.36 3.34 -1 3 C-0.67 2.01 -0.34 1.02 0 0 Z " fill="#232323" transform="translate(708,745)"/>
<path d="M0 0 C2.64 0 5.28 0 8 0 C7.67 0.99 7.34 1.98 7 3 C4.0625 2.625 4.0625 2.625 1 2 C0.67 1.34 0.34 0.68 0 0 Z " fill="#161616" transform="translate(430,735)"/>
<path d="M0 0 C1.98 0 3.96 0 6 0 C6.33 0.99 6.66 1.98 7 3 C4.69 2.67 2.38 2.34 0 2 C0 1.34 0 0.68 0 0 Z " fill="#131313" transform="translate(402,717)"/>
<path d="M0 0 C1.98 0.495 1.98 0.495 4 1 C4 1.99 4 2.98 4 4 C2.35 4 0.7 4 -1 4 C-0.67 2.68 -0.34 1.36 0 0 Z " fill="#1D1D1D" transform="translate(520,689)"/>
<path d="M0 0 C2.91227269 3.28804981 4.49701212 5.59885603 5 10 C1.95623822 7.97082548 1.25189126 7.27417715 0 4 C0 2.68 0 1.36 0 0 Z " fill="#C6C6C6" transform="translate(381,443)"/>
<path d="M0 0 C1.98 0 3.96 0 6 0 C5.67 0.99 5.34 1.98 5 3 C3.35 3 1.7 3 0 3 C0 2.01 0 1.02 0 0 Z " fill="#1F1F1F" transform="translate(670,813)"/>
<path d="M0 0 C1.98 0 3.96 0 6 0 C6 0.99 6 1.98 6 3 C4.35 3 2.7 3 1 3 C0.67 2.01 0.34 1.02 0 0 Z " fill="#111111" transform="translate(241,428)"/>
</svg>
