<?xml version="1.0" encoding="UTF-8"?>
<svg version="1.1" xmlns="http://www.w3.org/2000/svg" viewBox="0 0 992 1101" width="100" height="100">
<path d="M0 0 C0.33 0 0.66 0 1 0 C1.08451416 1.03141113 1.16902832 2.06282227 1.25610352 3.12548828 C4.53806783 42.55367372 10.25799417 81.46066375 18.22412109 120.21191406 C18.92115544 123.61505595 19.59936656 127.02117488 20.26953125 130.4296875 C23.09643832 144.62743319 26.58713521 158.64208581 30.15234375 172.66796875 C31.55154707 178.18042548 32.87535233 183.7021361 34.125 189.25 C35.67336507 195.93028247 37.57277608 202.46237783 39.58520508 209.01660156 C41.30143831 214.61677406 42.91080409 220.23695585 44.45849609 225.88598633 C48.34679407 240.06415691 52.74197326 254.04466975 57.34381104 268.00604248 C58.03026187 270.09195658 58.71343622 272.17892291 59.39599609 274.26611328 C73.8050089 318.29442894 90.30882512 361.36828522 108.86949158 403.80976868 C112.63750939 412.4374499 116.33100461 421.09667853 120.01373291 429.76104736 C120.7409476 431.47162152 121.46890492 433.1818802 122.19769287 434.89178467 C126.14530921 444.15397037 130.01871255 453.43507993 133.7019043 462.8059082 C134.94258798 465.85873209 136.28328197 468.83185085 137.6875 471.8125 C140.63367507 478.08776717 143.33516553 484.45417317 146.0234375 490.84375 C147.01138563 493.18540896 147.99959238 495.52695882 148.98803711 497.8684082 C149.48987518 499.05753815 149.99171326 500.24666809 150.50875854 501.47183228 C152.79679216 506.88515171 155.09850698 512.29260968 157.40234375 517.69921875 C157.84944199 518.74863647 158.29654022 519.7980542 158.75718689 520.87927246 C160.15038116 524.14878544 161.54393482 527.4181451 162.9375 530.6875 C164.9571945 535.42701378 166.97666148 540.16662448 168.99609375 544.90625 C169.50010712 546.0891008 170.00412048 547.2719516 170.52340698 548.49064636 C173.8217616 556.23217011 177.11718236 563.97493604 180.41015625 571.71875 C180.83835663 572.72566895 181.26655701 573.73258789 181.70773315 574.77001953 C182.13031403 575.76372559 182.5528949 576.75743164 182.98828125 577.78125 C190.38054758 595.1642243 197.78604175 612.54125099 205.24609375 629.89526367 C208.54635537 637.57681407 211.80463001 645.27416485 215 653 C218.42591321 646.42573598 221.24098015 639.68982512 224 632.8125 C224.98496099 630.37600884 225.97057097 627.93978981 226.95703125 625.50390625 C227.20926956 624.88023163 227.46150787 624.25655701 227.72138977 623.61398315 C230.34039224 617.14424355 233.01170677 610.69643487 235.6875 604.25 C240.48645861 592.67813862 245.24963433 581.09188989 250 569.5 C255.23462903 556.7264058 260.49201142 543.96277358 265.7800293 531.21118164 C268.98872037 523.46578363 272.15968264 515.70578791 275.3125 507.9375 C279.80578545 496.87103575 284.3904477 485.84449465 288.99795532 474.82528687 C292.94082129 465.39208672 296.85034537 455.94607084 300.71484375 446.48046875 C301.31257347 445.01656456 301.31257347 445.01656456 301.92237854 443.52308655 C303.86711695 438.75774196 305.80861217 433.99110059 307.74633789 429.22290039 C308.46628 427.45588027 309.18624947 425.68887131 309.90625 423.921875 C310.21622421 423.15630783 310.52619843 422.39074066 310.8455658 421.60197449 C314.08376515 413.66344472 317.55929407 405.86447069 321 398 C373.47 398 425.94 398 480 398 C480 405 480 405 478.22265625 407.90625 C473.41559844 411.02938089 469.0464024 410.57068425 463.4375 410.5 C451.67312034 410.65746833 443.11996806 411.99403455 434 420 C425.37066853 430.40194809 425.69530316 443.99277929 425.73930359 456.88240051 C425.73547804 458.09926645 425.73165249 459.31613238 425.72771102 460.56987303 C425.719258 463.90316764 425.71958363 467.2362384 425.72389162 470.56952584 C425.72637956 474.18178372 425.71731926 477.79401676 425.70985413 481.40626526 C425.69716205 488.46600408 425.69530654 495.52570476 425.69765439 502.58545307 C425.69944389 508.32916119 425.69767442 514.07285781 425.69342995 519.81656456 C425.69253716 521.04694331 425.69253716 521.04694331 425.69162634 522.3021782 C425.69041448 523.96900529 425.68920035 525.63583238 425.68798397 527.30265947 C425.67712958 542.90336721 425.67926094 558.50405328 425.68536881 574.10476222 C425.69053605 588.3446392 425.67928387 602.58444773 425.66027059 616.82431117 C425.64085072 631.48223379 425.63264346 646.14012409 425.63639385 660.79805964 C425.63829961 669.01276859 425.63587959 677.22741931 425.62167931 685.44211769 C425.60971147 692.43552906 425.60842072 699.42884634 425.62046947 706.42225913 C425.62632053 709.98291714 425.62756365 713.54340354 425.61546707 717.10404968 C424.23625492 742.91062766 424.23625492 742.91062766 433.62109375 765.84375 C444.11888246 775.41592723 454.0702949 776.56920244 467.81054688 776.72412109 C468.82310547 776.73652832 469.83566406 776.74893555 470.87890625 776.76171875 C472.24897827 776.7611145 472.24897827 776.7611145 473.64672852 776.76049805 C476 777 476 777 479 779 C480 782 480 782 480 789 C412.68 789 345.36 789 276 789 C277 780 277 780 278.44140625 777.96484375 C282.53416289 776.42146835 286.60030736 776.59643197 290.9375 776.5625 C299.65239111 776.33430273 306.85109315 775.25219927 315 772 C315.9178125 771.68933594 316.835625 771.37867188 317.78125 771.05859375 C318.87953125 770.53458984 318.87953125 770.53458984 320 770 C320.33 769.01 320.66 768.02 321 767 C321.98781448 765.98796119 322.98871582 764.98858703 324 764 C330.32148198 754.46153608 330.29569129 743.03247126 330.24050903 731.98432922 C330.24221788 730.71719642 330.24392673 729.45006362 330.24568737 728.14453286 C330.25012471 724.65765418 330.2422075 721.17090015 330.23213124 717.68403733 C330.22344644 713.91255289 330.22642044 710.14107476 330.22793579 706.36958313 C330.22898148 699.84524703 330.22273806 693.32095113 330.21146011 686.79662514 C330.19516503 677.36369918 330.18999301 667.93079253 330.18748413 658.49785402 C330.1831133 643.19134806 330.16982085 627.88486349 330.15087891 612.57836914 C330.13250423 597.71476345 330.1183555 582.85116359 330.10986328 567.98754883 C330.10933783 567.07044415 330.10881239 566.15333947 330.10827102 565.20844374 C330.10566083 560.60732681 330.10313344 556.00620984 330.10064721 551.40509284 C330.07993379 513.27004692 330.04472498 475.13502488 330 437 C329.49203888 438.21455368 328.98407776 439.42910736 328.46072388 440.6804657 C326.54119853 445.26982434 324.62114981 449.85896389 322.70095825 454.44804382 C321.87647892 456.41866866 321.05213379 458.38934965 320.22793579 460.36009216 C315.14069545 472.52391103 310.03332853 484.67864878 304.875 496.8125 C304.26413936 498.24984717 303.65329124 499.68719967 303.04245567 501.1245575 C302.52957811 502.33126602 302.01670055 503.53797455 301.48828125 504.78125 C291.70530413 527.80486498 282.03770368 550.87700233 272.42504883 573.97216797 C258.55006485 607.3074174 244.50137442 640.56973408 230.41967773 673.81811523 C225.65094371 685.07765111 220.9120997 696.34951304 216.18823242 707.62792969 C213.14675485 714.88825634 210.097974 722.14543705 207.0390625 729.3984375 C206.53391113 730.59639702 206.53391113 730.59639702 206.01855469 731.81855774 C203.15101463 738.61885218 203.15101463 738.61885218 201.91833496 741.54098511 C198.36877884 749.95754767 194.83232729 758.37893845 191.3515625 766.82421875 C191.06863846 767.51040283 190.78571442 768.19658691 190.49421692 768.90356445 C189.17227476 772.11193222 187.853948 775.32172612 186.54077148 778.53369141 C186.08516846 779.64276855 185.62956543 780.7518457 185.16015625 781.89453125 C184.76449463 782.86237549 184.36883301 783.83021973 183.96118164 784.82739258 C183 787 183 787 182 788 C179.32941149 788.14115161 176.67567762 788.04247107 174 788 C162.67804369 761.94474405 151.41324029 735.86442142 140.375 709.6875 C135.95203051 699.199471 131.44108714 688.75101876 126.90576172 678.3112793 C123.24565703 669.88472931 119.61258869 661.44706484 116 653 C111.9224047 643.46753296 107.81654042 633.94778983 103.6875 624.4375 C98.60560996 612.73226446 93.56712895 601.00888929 88.54885864 589.27624512 C85.21039385 581.47142824 81.86474087 573.67010658 78.4765625 565.88671875 C78.19480667 565.23937271 77.91305084 564.59202667 77.62275696 563.92506409 C77.06429109 562.64216205 76.50580443 561.35926907 75.94729614 560.0763855 C75.67593842 559.45305328 75.40458069 558.82972107 75.125 558.1875 C74.72195145 557.2618071 74.72195145 557.2618071 74.3107605 556.31741333 C70.43500239 547.40739607 66.66452007 538.46165458 63.06494141 529.4362793 C61.29224117 525.02153088 59.40894204 520.68725738 57.390625 516.37890625 C52.57117959 506.03076141 48.16855859 495.4977564 43.6875 485 C42.77946848 482.8762287 41.87126634 480.75253035 40.96289062 478.62890625 C39.25895053 474.64498272 37.55613928 470.66058038 35.85424805 466.67578125 C33.34769355 460.80958752 30.83482411 454.94610669 28.3216095 449.08276367 C27.90522925 448.11128136 27.488849 447.13979904 27.05985117 446.13887787 C26.03992705 443.75924065 25.01997597 441.37961499 24 439 C23.95419923 476.77619332 23.91896894 514.55238245 23.89786934 552.32859792 C23.895368 556.79076129 23.89277935 561.2529246 23.89013672 565.71508789 C23.88934979 567.04756457 23.88934979 567.04756457 23.88854696 568.40695997 C23.87984982 582.7810921 23.86408365 597.1552082 23.84569441 611.52933083 C23.82697613 626.28395486 23.8158792 641.0385705 23.81182301 655.79320592 C23.80908196 664.89394379 23.80043167 673.99463633 23.78416707 683.09536024 C23.77357639 689.34027272 23.77040409 695.58516183 23.77299725 701.83008263 C23.77427529 705.43037517 23.77234792 709.03058861 23.76158905 712.630867 C23.74998736 716.5419295 23.75404087 720.45289011 23.75949097 724.3639679 C23.75075244 726.0551599 23.75075244 726.0551599 23.74183738 727.7805174 C23.79172596 741.05984491 25.88480961 753.92610922 35.375 763.9375 C45.11333075 772.71481127 54.75460779 775.34842636 67.61669922 775.53417969 C72.18632496 775.65389073 75.32206758 775.97782297 79 779 C80 782 80 782 80 789 C53.93 789 27.86 789 1 789 C0.88704251 752.07551998 0.88704251 752.07551998 0.84754944 738.84004211 C0.84494565 737.96746367 0.84234186 737.09488523 0.83965916 736.19586501 C0.72368269 697.2786185 0.61506834 658.3613509 0.50904435 619.44407612 C0.50003312 616.13715443 0.49100381 612.83023278 0.48197412 609.52331114 C0.16671613 493.9292041 -0.05460801 378.33551123 -0.06315851 175.60684335 C-0.06249762 172.30057518 -0.06185504 168.994307 -0.06121445 165.68803883 C-0.05039248 110.4586882 -0.03067373 55.22934317 0 0 Z " fill="#010101" stroke="black" stroke-width="2" transform="translate(498,37)"/>


<path d="M0 0 C52.8 0 105.6 0 160 0 C163.3 7.92 166.6 15.84 170 24 C172.82729126 30.67049827 175.65616679 37.33996598 178.49868774 44.00393677 C180.24530882 48.09869676 181.98981848 52.19435534 183.73445129 56.28996277 C184.61145883 58.34877128 185.48856324 60.40753852 186.36576843 62.46626282 C189.59168833 70.03801727 192.80870256 77.61350299 196.01971436 85.19158936 C210.65861086 119.73821301 225.36216177 154.2578322 240.17333984 188.73095703 C245.11535321 200.23576285 250.01790394 211.75647086 254.89013672 223.29101562 C259.22323036 233.54319188 263.60266038 243.77523803 268 254 C271.31339898 250.23062869 272.78938682 245.8668191 274.5625 241.25 C275.28493789 239.40825704 276.00895821 237.56713419 276.734375 235.7265625 C277.11013672 234.77168945 277.48589844 233.81681641 277.87304688 232.83300781 C279.63327227 228.40803911 281.47076199 224.01653503 283.3125 219.625 C288.28371063 207.74305717 293.20830048 195.84208464 298.125 183.9375 C298.74249619 182.44249969 298.74249619 182.44249969 299.37246704 180.91729736 C305.25851746 166.6642957 311.12346858 152.4027764 316.96960449 138.13336182 C322.81013711 123.8787319 328.68971984 109.64043295 334.57745361 95.40524292 C338.98732027 84.74144256 343.38614099 74.07334688 347.75 63.390625 C348.14031403 62.43524338 348.53062805 61.47986176 348.93276978 60.49552917 C350.76541112 56.00818658 352.59598871 51.52001695 354.42333984 47.03051758 C360.83795826 31.30448027 367.4305204 15.66568213 374 0 C402.71 0 431.42 0 461 0 C461.0960897 60.06034732 461.19194478 120.120695 461.28601074 180.18104553 C461.28742048 181.08109198 461.28883022 181.98113842 461.29028267 182.908459 C461.32097531 202.50542136 461.35160888 222.10238381 461.38218227 241.69934636 C461.39719264 251.32047897 461.41221595 260.94161156 461.42724609 270.56274414 C461.42948836 271.99827967 461.42948836 271.99827967 461.43177592 273.46281591 C461.47955855 304.0502294 461.52818291 334.63764149 461.57728135 365.2250529 C461.62806223 396.86353793 461.67791928 428.5020243 461.7267361 460.14051243 C461.7337549 464.68918545 461.74078346 469.23785845 461.74781799 473.78653145 C461.74920114 474.68110052 461.75058429 475.5756696 461.75200936 476.49734683 C461.77230299 489.6076626 461.79333342 502.71797704 461.81480408 515.82829094 C461.84743816 535.78127701 461.87880072 555.73426475 461.90820312 575.68725586 C461.90997987 576.89066626 461.90997987 576.89066626 461.9117925 578.11838799 C462.03244718 660.07889787 462.02283667 742.03942246 462 824 C461.67 824 461.34 824 461 824 C460.89510254 822.72382812 460.89510254 822.72382812 460.78808594 821.421875 C458.21123526 790.26766749 455.35128459 759.15040909 451.5 728.125 C451.40430725 727.34702057 451.3086145 726.56904114 451.21002197 725.76748657 C448.37991873 702.89137675 444.61859383 680.14673456 440.6875 657.4375 C440.4933551 656.31479706 440.29921021 655.19209412 440.09918213 654.03536987 C435.76708 629.07377886 430.66775142 604.40968889 424.62231445 579.80249023 C422.48548688 571.10097588 420.5012284 562.37257322 418.5625 553.625 C416.27026877 543.29665035 413.75989502 533.04386279 411.0625 522.8125 C401.79697242 487.48444719 394.7906493 451.79089757 389.75 415.625 C389.6249408 414.74312012 389.49988159 413.86124023 389.37103271 412.95263672 C385.76783161 387.34316757 384.69338317 361.79980204 384.68332577 335.96704161 C384.67955858 331.93678282 384.6643693 327.90656272 384.65071106 323.87632751 C384.62865904 316.92776732 384.61351473 309.9792213 384.60334396 303.03063393 C384.58862913 292.98469989 384.56305852 282.93881536 384.53501268 272.89291074 C384.48977433 256.58592834 384.45306582 240.27893871 384.421875 223.97192383 C384.3915946 208.15062191 384.35720152 192.32933755 384.31738281 176.50805664 C384.31369049 175.04013413 384.31369049 175.04013413 384.30992357 173.54255662 C384.29754714 168.63212007 384.28509096 163.72168372 384.27259517 158.81124747 C384.16937195 118.20752282 384.08005639 77.60377652 384 37 C383.58027892 38.00892618 383.58027892 38.00892618 383.15207863 39.03823471 C381.86040802 42.14251671 380.56814653 45.24655242 379.27587891 48.35058594 C378.8359108 49.40821136 378.39594269 50.46583679 377.94264221 51.55551147 C375.18454832 58.17906879 372.4018612 64.79144894 369.5859375 71.390625 C369.03214889 72.6885177 369.03214889 72.6885177 368.46717262 74.01263046 C367.08563111 77.24906726 365.70264843 80.48488192 364.31738281 83.71972656 C360.00196133 93.80230118 355.81129527 103.92065054 351.77069092 114.11660767 C349.75136346 119.18928429 347.60867159 124.1726568 345.30175781 129.12207031 C342.52065842 135.27053236 340.0122164 141.5392601 337.44396973 147.77886963 C330.79415074 163.92880971 324.05467356 180.03974952 317.25 196.125 C316.84717804 197.07736542 316.44435608 198.02973083 316.02932739 199.01095581 C314.44284698 202.76169192 312.8563586 206.51242464 311.26960754 210.26304626 C307.93484429 218.14796078 304.61903282 226.04071238 301.3125 233.9375 C296.55509842 245.29735024 291.78144769 256.65025138 287 268 C280.59129014 283.21408684 274.1959122 298.4336745 267.81787109 313.66064453 C266.50619085 316.79203674 265.19391434 319.92317847 263.88134766 323.05419922 C254.53562653 345.34813369 245.21117691 367.65007973 236 390 C233.03 390 230.06 390 227 390 C226.70569092 389.29133789 226.41138184 388.58267578 226.1081543 387.85253906 C218.13729436 368.68852441 209.98092715 349.60929785 201.71362305 330.57128906 C198.17191126 322.40625194 194.66121435 314.23532204 191.3046875 305.9921875 C188.89263765 300.07066774 186.30469882 294.26275726 183.59033203 288.47216797 C180.59153848 281.92490946 177.82608303 275.27615622 175.02630615 268.64193726 C173.14882004 264.19407698 171.26392833 259.74935816 169.37890625 255.3046875 C169.0029834 254.41808945 168.62706055 253.53149139 168.23974609 252.61802673 C164.98881753 244.9581594 161.69312509 237.31845822 158.375 229.6875 C153.69827677 218.92971794 149.05506773 208.15828254 144.4375 197.375 C144.12022949 196.63419189 143.80295898 195.89338379 143.47607422 195.13012695 C140.7754493 188.8238438 138.0766448 182.51678217 135.37841797 176.20947266 C129.57641587 162.64814437 123.74950742 149.09817866 117.87582397 135.56774902 C113.13559042 124.64616588 108.43856245 113.70644726 103.75604248 102.76000977 C100.06593298 94.13440593 96.36262134 85.51477212 92.6328125 76.90625 C92.27055069 76.06993546 91.90828888 75.23362091 91.53504944 74.3719635 C89.78478801 70.33228151 88.0327053 66.29340196 86.27807617 62.25561523 C85.63977367 60.78370768 85.00150691 59.31178462 84.36328125 57.83984375 C84.08159088 57.19329834 83.79990051 56.54675293 83.50967407 55.88061523 C81.91248035 52.19328354 80.38314251 48.48416213 78.8946991 44.7514801 C78.36062832 43.41311269 78.36062832 43.41311269 77.81576824 42.04770756 C77.54656472 41.37196406 77.2773612 40.69622057 77 40 C76.95419923 77.77619332 76.91896894 115.55238245 76.89786934 153.32859792 C76.895368 157.79076129 76.89277935 162.2529246 76.89013672 166.71508789 C76.88934979 168.04756457 76.88934979 168.04756457 76.88854696 169.40695997 C76.87984982 183.7810921 76.86408365 198.1552082 76.84569441 212.52933083 C76.82697613 227.28395486 76.8158792 242.0385705 76.81182301 256.79320592 C76.80908196 265.89394379 76.80043167 274.99463633 76.78416707 284.09536024 C76.77357639 290.34027272 76.77040409 296.58516183 76.77299725 302.83008263 C76.77427529 306.43037517 76.77234792 310.03058861 76.76158905 313.630867 C76.74998736 317.5419295 76.75404087 321.45289011 76.75949097 325.3639679 C76.75075244 327.0551599 76.75075244 327.0551599 76.74183738 328.7805174 C76.79290389 342.37338641 79.25571699 354.23634009 88 365 C98.24286602 374.81849115 108.65356173 376.9747174 122.40625 377.62109375 C125.7144887 377.96989718 128.05303644 378.50200559 131 380 C133.59451211 383.45934948 133 385.29121506 133 390 C89.11 390 45.22 390 0 390 C0 382 0 382 1.01171875 380.0546875 C4.11837391 378.40675647 7.36842005 378.36647667 10.8125 378.125 C23.08569366 376.9562492 35.45055186 373.8195514 43.671875 364.00390625 C47.67197386 358.44931353 49.92767188 352.48266744 52 346 C52.33 345.01 52.66 344.02 53 343 C53.09354048 341.31893828 53.12911954 339.63438424 53.13142776 337.95072365 C53.13718948 336.37581136 53.13718948 336.37581136 53.1430676 334.76908267 C53.14220112 333.61162236 53.14133463 332.45416206 53.14044189 331.2616272 C53.14341302 330.03500347 53.14638414 328.80837973 53.1494453 327.54458559 C53.15663411 324.13317088 53.15930529 320.72180653 53.16004276 317.31038785 C53.16189217 313.63326022 53.16943919 309.95614353 53.17617798 306.27902222 C53.18976962 298.23313056 53.19578803 290.18724387 53.20018864 282.14134264 C53.20295108 277.11509502 53.20718857 272.08884932 53.21169281 267.062603 C53.22388925 253.14154748 53.23418607 239.2204935 53.2375679 225.29943275 C53.23778747 224.40808983 53.23800703 223.5167469 53.23823325 222.59839358 C53.23845153 221.70492456 53.23866981 220.81145554 53.2388947 219.8909117 C53.23933816 218.08043202 53.23978473 216.26995234 53.24023438 214.45947266 C53.24056652 213.11238397 53.24056652 213.11238397 53.24090537 211.73808138 C53.2448488 197.20381323 53.26228721 182.66959536 53.2855939 168.13534661 C53.30933938 153.20659303 53.3217713 138.27786464 53.32293582 123.34909189 C53.32385107 114.97002132 53.32956507 106.59101616 53.34775543 98.21196365 C53.36319998 91.07251887 53.3682515 83.93315969 53.36001733 76.79370137 C53.35612544 73.15462665 53.35696813 69.51572408 53.37107468 65.87667084 C53.38626944 61.92044389 53.37790331 57.96445573 53.36749268 54.00820923 C53.37554908 52.87305614 53.38360548 51.73790305 53.39190602 50.56835139 C53.33375102 41.07254385 52.96389482 29.58889482 45.8671875 22.4921875 C35.04043364 13.83984446 25.62585468 12.6552909 12.18554688 12.69726562 C4.70295103 12.54673969 4.70295103 12.54673969 1.29296875 9.89453125 C0 7 0 7 0 0 Z " fill="#010101" stroke="black" stroke-width="2" transform="translate(13,230)"/>


</svg>
